G04 (created by PCBNEW (2011-12-28 BZR 3254)-stable) date 2/3/2012 5:14:34 PM*
G01*
G70*
G90*
%MOIN*%
G04 Gerber Fmt 3.4, Leading zero omitted, Abs format*
%FSLAX34Y34*%
G04 APERTURE LIST*
%ADD10C,0.001000*%
%ADD11C,0.015000*%
%ADD12C,0.008000*%
G04 APERTURE END LIST*
G54D10*
G54D11*
X21200Y-25600D02*
X21200Y-26000D01*
X60800Y-25600D02*
X60800Y-26000D01*
X21200Y-25600D02*
X60800Y-25600D01*
X21200Y-53600D02*
X60800Y-53600D01*
X21200Y-26000D02*
X21200Y-53600D01*
X60800Y-53600D02*
X60800Y-26000D01*
G54D10*
X27805Y-46495D02*
X28055Y-46745D01*
X28055Y-46495D02*
X27805Y-46745D01*
X29555Y-32545D02*
X29805Y-32795D01*
X29805Y-32545D02*
X29555Y-32795D01*
X29575Y-45435D02*
X29825Y-45685D01*
X29825Y-45435D02*
X29575Y-45685D01*
X29595Y-30965D02*
X29845Y-31215D01*
X29845Y-30965D02*
X29595Y-31215D01*
X29785Y-46725D02*
X30035Y-46975D01*
X30035Y-46725D02*
X29785Y-46975D01*
X29895Y-43705D02*
X30145Y-43955D01*
X30145Y-43705D02*
X29895Y-43955D01*
X30875Y-44205D02*
X31125Y-44455D01*
X31125Y-44205D02*
X30875Y-44455D01*
X30885Y-44965D02*
X31135Y-45215D01*
X31135Y-44965D02*
X30885Y-45215D01*
X31145Y-46305D02*
X31395Y-46555D01*
X31395Y-46305D02*
X31145Y-46555D01*
X31945Y-43375D02*
X32195Y-43625D01*
X32195Y-43375D02*
X31945Y-43625D01*
X32595Y-47145D02*
X32845Y-47395D01*
X32845Y-47145D02*
X32595Y-47395D01*
X33175Y-46705D02*
X33425Y-46955D01*
X33425Y-46705D02*
X33175Y-46955D01*
X33515Y-51165D02*
X33765Y-51415D01*
X33765Y-51165D02*
X33515Y-51415D01*
X34095Y-50215D02*
X34345Y-50465D01*
X34345Y-50215D02*
X34095Y-50465D01*
X34265Y-42945D02*
X34515Y-43195D01*
X34515Y-42945D02*
X34265Y-43195D01*
X34295Y-42215D02*
X34545Y-42465D01*
X34545Y-42215D02*
X34295Y-42465D01*
X34385Y-30595D02*
X34635Y-30845D01*
X34635Y-30595D02*
X34385Y-30845D01*
X35065Y-43325D02*
X35315Y-43575D01*
X35315Y-43325D02*
X35065Y-43575D01*
X35325Y-49925D02*
X35575Y-50175D01*
X35575Y-49925D02*
X35325Y-50175D01*
X35345Y-29315D02*
X35595Y-29565D01*
X35595Y-29315D02*
X35345Y-29565D01*
X35375Y-36875D02*
X35625Y-37125D01*
X35625Y-36875D02*
X35375Y-37125D01*
X35375Y-37875D02*
X35625Y-38125D01*
X35625Y-37875D02*
X35375Y-38125D01*
X35495Y-48175D02*
X35745Y-48425D01*
X35745Y-48175D02*
X35495Y-48425D01*
X35875Y-37375D02*
X36125Y-37625D01*
X36125Y-37375D02*
X35875Y-37625D01*
X36255Y-48205D02*
X36505Y-48455D01*
X36505Y-48205D02*
X36255Y-48455D01*
X36295Y-45815D02*
X36545Y-46065D01*
X36545Y-45815D02*
X36295Y-46065D01*
X36375Y-36875D02*
X36625Y-37125D01*
X36625Y-36875D02*
X36375Y-37125D01*
X36375Y-37875D02*
X36625Y-38125D01*
X36625Y-37875D02*
X36375Y-38125D01*
X36865Y-50175D02*
X37115Y-50425D01*
X37115Y-50175D02*
X36865Y-50425D01*
X37065Y-48975D02*
X37315Y-49225D01*
X37315Y-48975D02*
X37065Y-49225D01*
X37265Y-31175D02*
X37515Y-31425D01*
X37515Y-31175D02*
X37265Y-31425D01*
X37275Y-32635D02*
X37525Y-32885D01*
X37525Y-32635D02*
X37275Y-32885D01*
X37275Y-42615D02*
X37525Y-42865D01*
X37525Y-42615D02*
X37275Y-42865D01*
X37985Y-30435D02*
X38235Y-30685D01*
X38235Y-30435D02*
X37985Y-30685D01*
X38005Y-32525D02*
X38255Y-32775D01*
X38255Y-32525D02*
X38005Y-32775D01*
X38425Y-43695D02*
X38675Y-43945D01*
X38675Y-43695D02*
X38425Y-43945D01*
X38895Y-32335D02*
X39145Y-32585D01*
X39145Y-32335D02*
X38895Y-32585D01*
X38945Y-33685D02*
X39195Y-33935D01*
X39195Y-33685D02*
X38945Y-33935D01*
X39995Y-32975D02*
X40245Y-33225D01*
X40245Y-32975D02*
X39995Y-33225D01*
X40025Y-33715D02*
X40275Y-33965D01*
X40275Y-33715D02*
X40025Y-33965D01*
X40665Y-44715D02*
X40915Y-44965D01*
X40915Y-44715D02*
X40665Y-44965D01*
X41355Y-47735D02*
X41605Y-47985D01*
X41605Y-47735D02*
X41355Y-47985D01*
X41585Y-49625D02*
X41835Y-49875D01*
X41835Y-49625D02*
X41585Y-49875D01*
X42115Y-43745D02*
X42365Y-43995D01*
X42365Y-43745D02*
X42115Y-43995D01*
X42595Y-44175D02*
X42845Y-44425D01*
X42845Y-44175D02*
X42595Y-44425D01*
X43035Y-45805D02*
X43285Y-46055D01*
X43285Y-45805D02*
X43035Y-46055D01*
X43055Y-49095D02*
X43305Y-49345D01*
X43305Y-49095D02*
X43055Y-49345D01*
X43395Y-47285D02*
X43645Y-47535D01*
X43645Y-47285D02*
X43395Y-47535D01*
X43985Y-44175D02*
X44235Y-44425D01*
X44235Y-44175D02*
X43985Y-44425D01*
X44055Y-42835D02*
X44305Y-43085D01*
X44305Y-42835D02*
X44055Y-43085D01*
X44925Y-37325D02*
X45175Y-37575D01*
X45175Y-37325D02*
X44925Y-37575D01*
X44965Y-41735D02*
X45215Y-41985D01*
X45215Y-41735D02*
X44965Y-41985D01*
X46585Y-47475D02*
X46835Y-47725D01*
X46835Y-47475D02*
X46585Y-47725D01*
X46745Y-45275D02*
X46995Y-45525D01*
X46995Y-45275D02*
X46745Y-45525D01*
X47975Y-41885D02*
X48225Y-42135D01*
X48225Y-41885D02*
X47975Y-42135D01*
X48445Y-50415D02*
X48695Y-50665D01*
X48695Y-50415D02*
X48445Y-50665D01*
X48465Y-48735D02*
X48715Y-48985D01*
X48715Y-48735D02*
X48465Y-48985D01*
X49255Y-30005D02*
X49505Y-30255D01*
X49505Y-30005D02*
X49255Y-30255D01*
X49685Y-35075D02*
X49935Y-35325D01*
X49935Y-35075D02*
X49685Y-35325D01*
X49725Y-36535D02*
X49975Y-36785D01*
X49975Y-36535D02*
X49725Y-36785D01*
X49785Y-47165D02*
X50035Y-47415D01*
X50035Y-47165D02*
X49785Y-47415D01*
X49805Y-34505D02*
X50055Y-34755D01*
X50055Y-34505D02*
X49805Y-34755D01*
X50115Y-46295D02*
X50365Y-46545D01*
X50365Y-46295D02*
X50115Y-46545D01*
X50195Y-42995D02*
X50445Y-43245D01*
X50445Y-42995D02*
X50195Y-43245D01*
X50235Y-36435D02*
X50485Y-36685D01*
X50485Y-36435D02*
X50235Y-36685D01*
X50335Y-49145D02*
X50585Y-49395D01*
X50585Y-49145D02*
X50335Y-49395D01*
X50545Y-31395D02*
X50795Y-31645D01*
X50795Y-31395D02*
X50545Y-31645D01*
X50705Y-36615D02*
X50955Y-36865D01*
X50955Y-36615D02*
X50705Y-36865D01*
X50865Y-32365D02*
X51115Y-32615D01*
X51115Y-32365D02*
X50865Y-32615D01*
X50925Y-36045D02*
X51175Y-36295D01*
X51175Y-36045D02*
X50925Y-36295D01*
X51265Y-47205D02*
X51515Y-47455D01*
X51515Y-47205D02*
X51265Y-47455D01*
X51355Y-36425D02*
X51605Y-36675D01*
X51605Y-36425D02*
X51355Y-36675D01*
X51685Y-48005D02*
X51935Y-48255D01*
X51935Y-48005D02*
X51685Y-48255D01*
X51825Y-36035D02*
X52075Y-36285D01*
X52075Y-36035D02*
X51825Y-36285D01*
X52225Y-48365D02*
X52475Y-48615D01*
X52475Y-48365D02*
X52225Y-48615D01*
X53085Y-48765D02*
X53335Y-49015D01*
X53335Y-48765D02*
X53085Y-49015D01*
X53125Y-33935D02*
X53375Y-34185D01*
X53375Y-33935D02*
X53125Y-34185D01*
X53485Y-36645D02*
X53735Y-36895D01*
X53735Y-36645D02*
X53485Y-36895D01*
X53745Y-51195D02*
X53995Y-51445D01*
X53995Y-51195D02*
X53745Y-51445D01*
X53825Y-37635D02*
X54075Y-37885D01*
X54075Y-37635D02*
X53825Y-37885D01*
X55095Y-35125D02*
X55345Y-35375D01*
X55345Y-35125D02*
X55095Y-35375D01*
X55175Y-47235D02*
X55425Y-47485D01*
X55425Y-47235D02*
X55175Y-47485D01*
X56065Y-41825D02*
X56315Y-42075D01*
X56315Y-41825D02*
X56065Y-42075D01*
X56065Y-47285D02*
X56315Y-47535D01*
X56315Y-47285D02*
X56065Y-47535D01*
X56465Y-48495D02*
X56715Y-48745D01*
X56715Y-48495D02*
X56465Y-48745D01*
X57075Y-49485D02*
X57325Y-49735D01*
X57325Y-49485D02*
X57075Y-49735D01*
X57385Y-50835D02*
X57635Y-51085D01*
X57635Y-50835D02*
X57385Y-51085D01*
X25548Y-29496D02*
X25544Y-29529D01*
X25534Y-29562D01*
X25518Y-29592D01*
X25497Y-29619D01*
X25470Y-29641D01*
X25440Y-29657D01*
X25408Y-29667D01*
X25374Y-29670D01*
X25341Y-29667D01*
X25308Y-29658D01*
X25278Y-29642D01*
X25251Y-29621D01*
X25229Y-29594D01*
X25213Y-29564D01*
X25202Y-29532D01*
X25199Y-29498D01*
X25201Y-29465D01*
X25211Y-29432D01*
X25226Y-29402D01*
X25248Y-29375D01*
X25274Y-29353D01*
X25303Y-29336D01*
X25336Y-29326D01*
X25370Y-29322D01*
X25403Y-29324D01*
X25436Y-29333D01*
X25466Y-29349D01*
X25493Y-29370D01*
X25516Y-29396D01*
X25532Y-29425D01*
X25543Y-29458D01*
X25547Y-29492D01*
X25548Y-29496D01*
X25555Y-32460D02*
X25551Y-32493D01*
X25541Y-32526D01*
X25525Y-32556D01*
X25504Y-32583D01*
X25477Y-32605D01*
X25447Y-32621D01*
X25415Y-32631D01*
X25381Y-32634D01*
X25348Y-32631D01*
X25315Y-32622D01*
X25285Y-32606D01*
X25258Y-32585D01*
X25236Y-32558D01*
X25220Y-32528D01*
X25209Y-32496D01*
X25206Y-32462D01*
X25208Y-32429D01*
X25218Y-32396D01*
X25233Y-32366D01*
X25255Y-32339D01*
X25281Y-32317D01*
X25310Y-32300D01*
X25343Y-32290D01*
X25377Y-32286D01*
X25410Y-32288D01*
X25443Y-32297D01*
X25473Y-32313D01*
X25500Y-32334D01*
X25523Y-32360D01*
X25539Y-32389D01*
X25550Y-32422D01*
X25554Y-32456D01*
X25555Y-32460D01*
X25565Y-30470D02*
X25561Y-30503D01*
X25551Y-30536D01*
X25535Y-30566D01*
X25514Y-30593D01*
X25487Y-30615D01*
X25457Y-30631D01*
X25425Y-30641D01*
X25391Y-30644D01*
X25358Y-30641D01*
X25325Y-30632D01*
X25295Y-30616D01*
X25268Y-30595D01*
X25246Y-30568D01*
X25230Y-30538D01*
X25219Y-30506D01*
X25216Y-30472D01*
X25218Y-30439D01*
X25228Y-30406D01*
X25243Y-30376D01*
X25265Y-30349D01*
X25291Y-30327D01*
X25320Y-30310D01*
X25353Y-30300D01*
X25387Y-30296D01*
X25420Y-30298D01*
X25453Y-30307D01*
X25483Y-30323D01*
X25510Y-30344D01*
X25533Y-30370D01*
X25549Y-30399D01*
X25560Y-30432D01*
X25564Y-30466D01*
X25565Y-30470D01*
X25565Y-31460D02*
X25561Y-31493D01*
X25551Y-31526D01*
X25535Y-31556D01*
X25514Y-31583D01*
X25487Y-31605D01*
X25457Y-31621D01*
X25425Y-31631D01*
X25391Y-31634D01*
X25358Y-31631D01*
X25325Y-31622D01*
X25295Y-31606D01*
X25268Y-31585D01*
X25246Y-31558D01*
X25230Y-31528D01*
X25219Y-31496D01*
X25216Y-31462D01*
X25218Y-31429D01*
X25228Y-31396D01*
X25243Y-31366D01*
X25265Y-31339D01*
X25291Y-31317D01*
X25320Y-31300D01*
X25353Y-31290D01*
X25387Y-31286D01*
X25420Y-31288D01*
X25453Y-31297D01*
X25483Y-31313D01*
X25510Y-31334D01*
X25533Y-31360D01*
X25549Y-31389D01*
X25560Y-31422D01*
X25564Y-31456D01*
X25565Y-31460D01*
X26555Y-29960D02*
X26551Y-29993D01*
X26541Y-30026D01*
X26525Y-30056D01*
X26504Y-30083D01*
X26477Y-30105D01*
X26447Y-30121D01*
X26415Y-30131D01*
X26381Y-30134D01*
X26348Y-30131D01*
X26315Y-30122D01*
X26285Y-30106D01*
X26258Y-30085D01*
X26236Y-30058D01*
X26220Y-30028D01*
X26209Y-29996D01*
X26206Y-29962D01*
X26208Y-29929D01*
X26218Y-29896D01*
X26233Y-29866D01*
X26255Y-29839D01*
X26281Y-29817D01*
X26310Y-29800D01*
X26343Y-29790D01*
X26377Y-29786D01*
X26410Y-29788D01*
X26443Y-29797D01*
X26473Y-29813D01*
X26500Y-29834D01*
X26523Y-29860D01*
X26539Y-29889D01*
X26550Y-29922D01*
X26554Y-29956D01*
X26555Y-29960D01*
X26555Y-30970D02*
X26551Y-31003D01*
X26541Y-31036D01*
X26525Y-31066D01*
X26504Y-31093D01*
X26477Y-31115D01*
X26447Y-31131D01*
X26415Y-31141D01*
X26381Y-31144D01*
X26348Y-31141D01*
X26315Y-31132D01*
X26285Y-31116D01*
X26258Y-31095D01*
X26236Y-31068D01*
X26220Y-31038D01*
X26209Y-31006D01*
X26206Y-30972D01*
X26208Y-30939D01*
X26218Y-30906D01*
X26233Y-30876D01*
X26255Y-30849D01*
X26281Y-30827D01*
X26310Y-30810D01*
X26343Y-30800D01*
X26377Y-30796D01*
X26410Y-30798D01*
X26443Y-30807D01*
X26473Y-30823D01*
X26500Y-30844D01*
X26523Y-30870D01*
X26539Y-30899D01*
X26550Y-30932D01*
X26554Y-30966D01*
X26555Y-30970D01*
X26555Y-31960D02*
X26551Y-31993D01*
X26541Y-32026D01*
X26525Y-32056D01*
X26504Y-32083D01*
X26477Y-32105D01*
X26447Y-32121D01*
X26415Y-32131D01*
X26381Y-32134D01*
X26348Y-32131D01*
X26315Y-32122D01*
X26285Y-32106D01*
X26258Y-32085D01*
X26236Y-32058D01*
X26220Y-32028D01*
X26209Y-31996D01*
X26206Y-31962D01*
X26208Y-31929D01*
X26218Y-31896D01*
X26233Y-31866D01*
X26255Y-31839D01*
X26281Y-31817D01*
X26310Y-31800D01*
X26343Y-31790D01*
X26377Y-31786D01*
X26410Y-31788D01*
X26443Y-31797D01*
X26473Y-31813D01*
X26500Y-31834D01*
X26523Y-31860D01*
X26539Y-31889D01*
X26550Y-31922D01*
X26554Y-31956D01*
X26555Y-31960D01*
X26555Y-32960D02*
X26551Y-32993D01*
X26541Y-33026D01*
X26525Y-33056D01*
X26504Y-33083D01*
X26477Y-33105D01*
X26447Y-33121D01*
X26415Y-33131D01*
X26381Y-33134D01*
X26348Y-33131D01*
X26315Y-33122D01*
X26285Y-33106D01*
X26258Y-33085D01*
X26236Y-33058D01*
X26220Y-33028D01*
X26209Y-32996D01*
X26206Y-32962D01*
X26208Y-32929D01*
X26218Y-32896D01*
X26233Y-32866D01*
X26255Y-32839D01*
X26281Y-32817D01*
X26310Y-32800D01*
X26343Y-32790D01*
X26377Y-32786D01*
X26410Y-32788D01*
X26443Y-32797D01*
X26473Y-32813D01*
X26500Y-32834D01*
X26523Y-32860D01*
X26539Y-32889D01*
X26550Y-32922D01*
X26554Y-32956D01*
X26555Y-32960D01*
X34080Y-37762D02*
X34080Y-38156D01*
X34277Y-37959D02*
X33883Y-37959D01*
X34080Y-38549D02*
X34080Y-38943D01*
X34277Y-38746D02*
X33883Y-38746D01*
X34080Y-39337D02*
X34080Y-39731D01*
X34277Y-39534D02*
X33883Y-39534D01*
X34080Y-40124D02*
X34080Y-40518D01*
X34277Y-40321D02*
X33883Y-40321D01*
X48969Y-40173D02*
X48969Y-40567D01*
X49166Y-40370D02*
X48772Y-40370D01*
X49756Y-40173D02*
X49756Y-40567D01*
X49953Y-40370D02*
X49559Y-40370D01*
X50544Y-40173D02*
X50544Y-40567D01*
X50741Y-40370D02*
X50347Y-40370D01*
X51331Y-40173D02*
X51331Y-40567D01*
X51528Y-40370D02*
X51134Y-40370D01*
X57150Y-34494D02*
X57150Y-34888D01*
X57347Y-34691D02*
X56953Y-34691D01*
X57150Y-35282D02*
X57150Y-35676D01*
X57347Y-35479D02*
X56953Y-35479D01*
X57150Y-36069D02*
X57150Y-36463D01*
X57347Y-36266D02*
X56953Y-36266D01*
X57150Y-36857D02*
X57150Y-37251D01*
X57347Y-37054D02*
X56953Y-37054D01*
X57150Y-37644D02*
X57150Y-38038D01*
X57347Y-37841D02*
X56953Y-37841D01*
X57150Y-38432D02*
X57150Y-38826D01*
X57347Y-38629D02*
X56953Y-38629D01*
X25700Y-44350D02*
X25696Y-44388D01*
X25684Y-44426D01*
X25666Y-44460D01*
X25641Y-44490D01*
X25611Y-44515D01*
X25577Y-44534D01*
X25540Y-44545D01*
X25501Y-44549D01*
X25463Y-44546D01*
X25426Y-44535D01*
X25391Y-44517D01*
X25361Y-44492D01*
X25335Y-44462D01*
X25317Y-44428D01*
X25305Y-44391D01*
X25301Y-44352D01*
X25304Y-44314D01*
X25315Y-44277D01*
X25332Y-44242D01*
X25357Y-44212D01*
X25386Y-44186D01*
X25420Y-44167D01*
X25458Y-44155D01*
X25496Y-44151D01*
X25534Y-44154D01*
X25572Y-44164D01*
X25607Y-44182D01*
X25637Y-44206D01*
X25663Y-44235D01*
X25682Y-44269D01*
X25695Y-44306D01*
X25699Y-44345D01*
X25700Y-44350D01*
X25300Y-44150D02*
X25700Y-44550D01*
X25700Y-44150D02*
X25300Y-44550D01*
X25700Y-45450D02*
X25696Y-45488D01*
X25684Y-45526D01*
X25666Y-45560D01*
X25641Y-45590D01*
X25611Y-45615D01*
X25577Y-45634D01*
X25540Y-45645D01*
X25501Y-45649D01*
X25463Y-45646D01*
X25426Y-45635D01*
X25391Y-45617D01*
X25361Y-45592D01*
X25335Y-45562D01*
X25317Y-45528D01*
X25305Y-45491D01*
X25301Y-45452D01*
X25304Y-45414D01*
X25315Y-45377D01*
X25332Y-45342D01*
X25357Y-45312D01*
X25386Y-45286D01*
X25420Y-45267D01*
X25458Y-45255D01*
X25496Y-45251D01*
X25534Y-45254D01*
X25572Y-45264D01*
X25607Y-45282D01*
X25637Y-45306D01*
X25663Y-45335D01*
X25682Y-45369D01*
X25695Y-45406D01*
X25699Y-45445D01*
X25700Y-45450D01*
X25300Y-45250D02*
X25700Y-45650D01*
X25700Y-45250D02*
X25300Y-45650D01*
X25700Y-46550D02*
X25696Y-46588D01*
X25684Y-46626D01*
X25666Y-46660D01*
X25641Y-46690D01*
X25611Y-46715D01*
X25577Y-46734D01*
X25540Y-46745D01*
X25501Y-46749D01*
X25463Y-46746D01*
X25426Y-46735D01*
X25391Y-46717D01*
X25361Y-46692D01*
X25335Y-46662D01*
X25317Y-46628D01*
X25305Y-46591D01*
X25301Y-46552D01*
X25304Y-46514D01*
X25315Y-46477D01*
X25332Y-46442D01*
X25357Y-46412D01*
X25386Y-46386D01*
X25420Y-46367D01*
X25458Y-46355D01*
X25496Y-46351D01*
X25534Y-46354D01*
X25572Y-46364D01*
X25607Y-46382D01*
X25637Y-46406D01*
X25663Y-46435D01*
X25682Y-46469D01*
X25695Y-46506D01*
X25699Y-46545D01*
X25700Y-46550D01*
X25300Y-46350D02*
X25700Y-46750D01*
X25700Y-46350D02*
X25300Y-46750D01*
X25700Y-47650D02*
X25696Y-47688D01*
X25684Y-47726D01*
X25666Y-47760D01*
X25641Y-47790D01*
X25611Y-47815D01*
X25577Y-47834D01*
X25540Y-47845D01*
X25501Y-47849D01*
X25463Y-47846D01*
X25426Y-47835D01*
X25391Y-47817D01*
X25361Y-47792D01*
X25335Y-47762D01*
X25317Y-47728D01*
X25305Y-47691D01*
X25301Y-47652D01*
X25304Y-47614D01*
X25315Y-47577D01*
X25332Y-47542D01*
X25357Y-47512D01*
X25386Y-47486D01*
X25420Y-47467D01*
X25458Y-47455D01*
X25496Y-47451D01*
X25534Y-47454D01*
X25572Y-47464D01*
X25607Y-47482D01*
X25637Y-47506D01*
X25663Y-47535D01*
X25682Y-47569D01*
X25695Y-47606D01*
X25699Y-47645D01*
X25700Y-47650D01*
X25300Y-47450D02*
X25700Y-47850D01*
X25700Y-47450D02*
X25300Y-47850D01*
X26700Y-43800D02*
X26696Y-43838D01*
X26684Y-43876D01*
X26666Y-43910D01*
X26641Y-43940D01*
X26611Y-43965D01*
X26577Y-43984D01*
X26540Y-43995D01*
X26501Y-43999D01*
X26463Y-43996D01*
X26426Y-43985D01*
X26391Y-43967D01*
X26361Y-43942D01*
X26335Y-43912D01*
X26317Y-43878D01*
X26305Y-43841D01*
X26301Y-43802D01*
X26304Y-43764D01*
X26315Y-43727D01*
X26332Y-43692D01*
X26357Y-43662D01*
X26386Y-43636D01*
X26420Y-43617D01*
X26458Y-43605D01*
X26496Y-43601D01*
X26534Y-43604D01*
X26572Y-43614D01*
X26607Y-43632D01*
X26637Y-43656D01*
X26663Y-43685D01*
X26682Y-43719D01*
X26695Y-43756D01*
X26699Y-43795D01*
X26700Y-43800D01*
X26300Y-43600D02*
X26700Y-44000D01*
X26700Y-43600D02*
X26300Y-44000D01*
X26700Y-44900D02*
X26696Y-44938D01*
X26684Y-44976D01*
X26666Y-45010D01*
X26641Y-45040D01*
X26611Y-45065D01*
X26577Y-45084D01*
X26540Y-45095D01*
X26501Y-45099D01*
X26463Y-45096D01*
X26426Y-45085D01*
X26391Y-45067D01*
X26361Y-45042D01*
X26335Y-45012D01*
X26317Y-44978D01*
X26305Y-44941D01*
X26301Y-44902D01*
X26304Y-44864D01*
X26315Y-44827D01*
X26332Y-44792D01*
X26357Y-44762D01*
X26386Y-44736D01*
X26420Y-44717D01*
X26458Y-44705D01*
X26496Y-44701D01*
X26534Y-44704D01*
X26572Y-44714D01*
X26607Y-44732D01*
X26637Y-44756D01*
X26663Y-44785D01*
X26682Y-44819D01*
X26695Y-44856D01*
X26699Y-44895D01*
X26700Y-44900D01*
X26300Y-44700D02*
X26700Y-45100D01*
X26700Y-44700D02*
X26300Y-45100D01*
X26700Y-46000D02*
X26696Y-46038D01*
X26684Y-46076D01*
X26666Y-46110D01*
X26641Y-46140D01*
X26611Y-46165D01*
X26577Y-46184D01*
X26540Y-46195D01*
X26501Y-46199D01*
X26463Y-46196D01*
X26426Y-46185D01*
X26391Y-46167D01*
X26361Y-46142D01*
X26335Y-46112D01*
X26317Y-46078D01*
X26305Y-46041D01*
X26301Y-46002D01*
X26304Y-45964D01*
X26315Y-45927D01*
X26332Y-45892D01*
X26357Y-45862D01*
X26386Y-45836D01*
X26420Y-45817D01*
X26458Y-45805D01*
X26496Y-45801D01*
X26534Y-45804D01*
X26572Y-45814D01*
X26607Y-45832D01*
X26637Y-45856D01*
X26663Y-45885D01*
X26682Y-45919D01*
X26695Y-45956D01*
X26699Y-45995D01*
X26700Y-46000D01*
X26300Y-45800D02*
X26700Y-46200D01*
X26700Y-45800D02*
X26300Y-46200D01*
X26700Y-47100D02*
X26696Y-47138D01*
X26684Y-47176D01*
X26666Y-47210D01*
X26641Y-47240D01*
X26611Y-47265D01*
X26577Y-47284D01*
X26540Y-47295D01*
X26501Y-47299D01*
X26463Y-47296D01*
X26426Y-47285D01*
X26391Y-47267D01*
X26361Y-47242D01*
X26335Y-47212D01*
X26317Y-47178D01*
X26305Y-47141D01*
X26301Y-47102D01*
X26304Y-47064D01*
X26315Y-47027D01*
X26332Y-46992D01*
X26357Y-46962D01*
X26386Y-46936D01*
X26420Y-46917D01*
X26458Y-46905D01*
X26496Y-46901D01*
X26534Y-46904D01*
X26572Y-46914D01*
X26607Y-46932D01*
X26637Y-46956D01*
X26663Y-46985D01*
X26682Y-47019D01*
X26695Y-47056D01*
X26699Y-47095D01*
X26700Y-47100D01*
X26300Y-46900D02*
X26700Y-47300D01*
X26700Y-46900D02*
X26300Y-47300D01*
X26700Y-48200D02*
X26696Y-48238D01*
X26684Y-48276D01*
X26666Y-48310D01*
X26641Y-48340D01*
X26611Y-48365D01*
X26577Y-48384D01*
X26540Y-48395D01*
X26501Y-48399D01*
X26463Y-48396D01*
X26426Y-48385D01*
X26391Y-48367D01*
X26361Y-48342D01*
X26335Y-48312D01*
X26317Y-48278D01*
X26305Y-48241D01*
X26301Y-48202D01*
X26304Y-48164D01*
X26315Y-48127D01*
X26332Y-48092D01*
X26357Y-48062D01*
X26386Y-48036D01*
X26420Y-48017D01*
X26458Y-48005D01*
X26496Y-48001D01*
X26534Y-48004D01*
X26572Y-48014D01*
X26607Y-48032D01*
X26637Y-48056D01*
X26663Y-48085D01*
X26682Y-48119D01*
X26695Y-48156D01*
X26699Y-48195D01*
X26700Y-48200D01*
X26300Y-48000D02*
X26700Y-48400D01*
X26700Y-48000D02*
X26300Y-48400D01*
X43260Y-34200D02*
X43256Y-34238D01*
X43244Y-34276D01*
X43226Y-34310D01*
X43201Y-34340D01*
X43171Y-34365D01*
X43137Y-34384D01*
X43100Y-34395D01*
X43061Y-34399D01*
X43023Y-34396D01*
X42986Y-34385D01*
X42951Y-34367D01*
X42921Y-34342D01*
X42895Y-34312D01*
X42877Y-34278D01*
X42865Y-34241D01*
X42861Y-34202D01*
X42864Y-34164D01*
X42875Y-34127D01*
X42892Y-34092D01*
X42917Y-34062D01*
X42946Y-34036D01*
X42980Y-34017D01*
X43018Y-34005D01*
X43056Y-34001D01*
X43094Y-34004D01*
X43132Y-34014D01*
X43167Y-34032D01*
X43197Y-34056D01*
X43223Y-34085D01*
X43242Y-34119D01*
X43255Y-34156D01*
X43259Y-34195D01*
X43260Y-34200D01*
X42860Y-34000D02*
X43260Y-34400D01*
X43260Y-34000D02*
X42860Y-34400D01*
X43260Y-35200D02*
X43256Y-35238D01*
X43244Y-35276D01*
X43226Y-35310D01*
X43201Y-35340D01*
X43171Y-35365D01*
X43137Y-35384D01*
X43100Y-35395D01*
X43061Y-35399D01*
X43023Y-35396D01*
X42986Y-35385D01*
X42951Y-35367D01*
X42921Y-35342D01*
X42895Y-35312D01*
X42877Y-35278D01*
X42865Y-35241D01*
X42861Y-35202D01*
X42864Y-35164D01*
X42875Y-35127D01*
X42892Y-35092D01*
X42917Y-35062D01*
X42946Y-35036D01*
X42980Y-35017D01*
X43018Y-35005D01*
X43056Y-35001D01*
X43094Y-35004D01*
X43132Y-35014D01*
X43167Y-35032D01*
X43197Y-35056D01*
X43223Y-35085D01*
X43242Y-35119D01*
X43255Y-35156D01*
X43259Y-35195D01*
X43260Y-35200D01*
X42860Y-35000D02*
X43260Y-35400D01*
X43260Y-35000D02*
X42860Y-35400D01*
X44260Y-34200D02*
X44256Y-34238D01*
X44244Y-34276D01*
X44226Y-34310D01*
X44201Y-34340D01*
X44171Y-34365D01*
X44137Y-34384D01*
X44100Y-34395D01*
X44061Y-34399D01*
X44023Y-34396D01*
X43986Y-34385D01*
X43951Y-34367D01*
X43921Y-34342D01*
X43895Y-34312D01*
X43877Y-34278D01*
X43865Y-34241D01*
X43861Y-34202D01*
X43864Y-34164D01*
X43875Y-34127D01*
X43892Y-34092D01*
X43917Y-34062D01*
X43946Y-34036D01*
X43980Y-34017D01*
X44018Y-34005D01*
X44056Y-34001D01*
X44094Y-34004D01*
X44132Y-34014D01*
X44167Y-34032D01*
X44197Y-34056D01*
X44223Y-34085D01*
X44242Y-34119D01*
X44255Y-34156D01*
X44259Y-34195D01*
X44260Y-34200D01*
X43860Y-34000D02*
X44260Y-34400D01*
X44260Y-34000D02*
X43860Y-34400D01*
X44260Y-35200D02*
X44256Y-35238D01*
X44244Y-35276D01*
X44226Y-35310D01*
X44201Y-35340D01*
X44171Y-35365D01*
X44137Y-35384D01*
X44100Y-35395D01*
X44061Y-35399D01*
X44023Y-35396D01*
X43986Y-35385D01*
X43951Y-35367D01*
X43921Y-35342D01*
X43895Y-35312D01*
X43877Y-35278D01*
X43865Y-35241D01*
X43861Y-35202D01*
X43864Y-35164D01*
X43875Y-35127D01*
X43892Y-35092D01*
X43917Y-35062D01*
X43946Y-35036D01*
X43980Y-35017D01*
X44018Y-35005D01*
X44056Y-35001D01*
X44094Y-35004D01*
X44132Y-35014D01*
X44167Y-35032D01*
X44197Y-35056D01*
X44223Y-35085D01*
X44242Y-35119D01*
X44255Y-35156D01*
X44259Y-35195D01*
X44260Y-35200D01*
X43860Y-35000D02*
X44260Y-35400D01*
X44260Y-35000D02*
X43860Y-35400D01*
X45260Y-34200D02*
X45256Y-34238D01*
X45244Y-34276D01*
X45226Y-34310D01*
X45201Y-34340D01*
X45171Y-34365D01*
X45137Y-34384D01*
X45100Y-34395D01*
X45061Y-34399D01*
X45023Y-34396D01*
X44986Y-34385D01*
X44951Y-34367D01*
X44921Y-34342D01*
X44895Y-34312D01*
X44877Y-34278D01*
X44865Y-34241D01*
X44861Y-34202D01*
X44864Y-34164D01*
X44875Y-34127D01*
X44892Y-34092D01*
X44917Y-34062D01*
X44946Y-34036D01*
X44980Y-34017D01*
X45018Y-34005D01*
X45056Y-34001D01*
X45094Y-34004D01*
X45132Y-34014D01*
X45167Y-34032D01*
X45197Y-34056D01*
X45223Y-34085D01*
X45242Y-34119D01*
X45255Y-34156D01*
X45259Y-34195D01*
X45260Y-34200D01*
X44860Y-34000D02*
X45260Y-34400D01*
X45260Y-34000D02*
X44860Y-34400D01*
X45260Y-34200D02*
X45256Y-34238D01*
X45244Y-34276D01*
X45226Y-34310D01*
X45201Y-34340D01*
X45171Y-34365D01*
X45137Y-34384D01*
X45100Y-34395D01*
X45061Y-34399D01*
X45023Y-34396D01*
X44986Y-34385D01*
X44951Y-34367D01*
X44921Y-34342D01*
X44895Y-34312D01*
X44877Y-34278D01*
X44865Y-34241D01*
X44861Y-34202D01*
X44864Y-34164D01*
X44875Y-34127D01*
X44892Y-34092D01*
X44917Y-34062D01*
X44946Y-34036D01*
X44980Y-34017D01*
X45018Y-34005D01*
X45056Y-34001D01*
X45094Y-34004D01*
X45132Y-34014D01*
X45167Y-34032D01*
X45197Y-34056D01*
X45223Y-34085D01*
X45242Y-34119D01*
X45255Y-34156D01*
X45259Y-34195D01*
X45260Y-34200D01*
X44860Y-34000D02*
X45260Y-34400D01*
X45260Y-34000D02*
X44860Y-34400D01*
X45260Y-35200D02*
X45256Y-35238D01*
X45244Y-35276D01*
X45226Y-35310D01*
X45201Y-35340D01*
X45171Y-35365D01*
X45137Y-35384D01*
X45100Y-35395D01*
X45061Y-35399D01*
X45023Y-35396D01*
X44986Y-35385D01*
X44951Y-35367D01*
X44921Y-35342D01*
X44895Y-35312D01*
X44877Y-35278D01*
X44865Y-35241D01*
X44861Y-35202D01*
X44864Y-35164D01*
X44875Y-35127D01*
X44892Y-35092D01*
X44917Y-35062D01*
X44946Y-35036D01*
X44980Y-35017D01*
X45018Y-35005D01*
X45056Y-35001D01*
X45094Y-35004D01*
X45132Y-35014D01*
X45167Y-35032D01*
X45197Y-35056D01*
X45223Y-35085D01*
X45242Y-35119D01*
X45255Y-35156D01*
X45259Y-35195D01*
X45260Y-35200D01*
X44860Y-35000D02*
X45260Y-35400D01*
X45260Y-35000D02*
X44860Y-35400D01*
X50350Y-28260D02*
X50346Y-28298D01*
X50334Y-28336D01*
X50316Y-28370D01*
X50291Y-28400D01*
X50261Y-28425D01*
X50227Y-28444D01*
X50190Y-28455D01*
X50151Y-28459D01*
X50113Y-28456D01*
X50076Y-28445D01*
X50041Y-28427D01*
X50011Y-28402D01*
X49985Y-28372D01*
X49967Y-28338D01*
X49955Y-28301D01*
X49951Y-28262D01*
X49954Y-28224D01*
X49965Y-28187D01*
X49982Y-28152D01*
X50007Y-28122D01*
X50036Y-28096D01*
X50070Y-28077D01*
X50108Y-28065D01*
X50146Y-28061D01*
X50184Y-28064D01*
X50222Y-28074D01*
X50257Y-28092D01*
X50287Y-28116D01*
X50313Y-28145D01*
X50332Y-28179D01*
X50345Y-28216D01*
X50349Y-28255D01*
X50350Y-28260D01*
X49950Y-28060D02*
X50350Y-28460D01*
X50350Y-28060D02*
X49950Y-28460D01*
X50350Y-29260D02*
X50346Y-29298D01*
X50334Y-29336D01*
X50316Y-29370D01*
X50291Y-29400D01*
X50261Y-29425D01*
X50227Y-29444D01*
X50190Y-29455D01*
X50151Y-29459D01*
X50113Y-29456D01*
X50076Y-29445D01*
X50041Y-29427D01*
X50011Y-29402D01*
X49985Y-29372D01*
X49967Y-29338D01*
X49955Y-29301D01*
X49951Y-29262D01*
X49954Y-29224D01*
X49965Y-29187D01*
X49982Y-29152D01*
X50007Y-29122D01*
X50036Y-29096D01*
X50070Y-29077D01*
X50108Y-29065D01*
X50146Y-29061D01*
X50184Y-29064D01*
X50222Y-29074D01*
X50257Y-29092D01*
X50287Y-29116D01*
X50313Y-29145D01*
X50332Y-29179D01*
X50345Y-29216D01*
X50349Y-29255D01*
X50350Y-29260D01*
X49950Y-29060D02*
X50350Y-29460D01*
X50350Y-29060D02*
X49950Y-29460D01*
X51350Y-28260D02*
X51346Y-28298D01*
X51334Y-28336D01*
X51316Y-28370D01*
X51291Y-28400D01*
X51261Y-28425D01*
X51227Y-28444D01*
X51190Y-28455D01*
X51151Y-28459D01*
X51113Y-28456D01*
X51076Y-28445D01*
X51041Y-28427D01*
X51011Y-28402D01*
X50985Y-28372D01*
X50967Y-28338D01*
X50955Y-28301D01*
X50951Y-28262D01*
X50954Y-28224D01*
X50965Y-28187D01*
X50982Y-28152D01*
X51007Y-28122D01*
X51036Y-28096D01*
X51070Y-28077D01*
X51108Y-28065D01*
X51146Y-28061D01*
X51184Y-28064D01*
X51222Y-28074D01*
X51257Y-28092D01*
X51287Y-28116D01*
X51313Y-28145D01*
X51332Y-28179D01*
X51345Y-28216D01*
X51349Y-28255D01*
X51350Y-28260D01*
X50950Y-28060D02*
X51350Y-28460D01*
X51350Y-28060D02*
X50950Y-28460D01*
X51350Y-29260D02*
X51346Y-29298D01*
X51334Y-29336D01*
X51316Y-29370D01*
X51291Y-29400D01*
X51261Y-29425D01*
X51227Y-29444D01*
X51190Y-29455D01*
X51151Y-29459D01*
X51113Y-29456D01*
X51076Y-29445D01*
X51041Y-29427D01*
X51011Y-29402D01*
X50985Y-29372D01*
X50967Y-29338D01*
X50955Y-29301D01*
X50951Y-29262D01*
X50954Y-29224D01*
X50965Y-29187D01*
X50982Y-29152D01*
X51007Y-29122D01*
X51036Y-29096D01*
X51070Y-29077D01*
X51108Y-29065D01*
X51146Y-29061D01*
X51184Y-29064D01*
X51222Y-29074D01*
X51257Y-29092D01*
X51287Y-29116D01*
X51313Y-29145D01*
X51332Y-29179D01*
X51345Y-29216D01*
X51349Y-29255D01*
X51350Y-29260D01*
X50950Y-29060D02*
X51350Y-29460D01*
X51350Y-29060D02*
X50950Y-29460D01*
X52350Y-28260D02*
X52346Y-28298D01*
X52334Y-28336D01*
X52316Y-28370D01*
X52291Y-28400D01*
X52261Y-28425D01*
X52227Y-28444D01*
X52190Y-28455D01*
X52151Y-28459D01*
X52113Y-28456D01*
X52076Y-28445D01*
X52041Y-28427D01*
X52011Y-28402D01*
X51985Y-28372D01*
X51967Y-28338D01*
X51955Y-28301D01*
X51951Y-28262D01*
X51954Y-28224D01*
X51965Y-28187D01*
X51982Y-28152D01*
X52007Y-28122D01*
X52036Y-28096D01*
X52070Y-28077D01*
X52108Y-28065D01*
X52146Y-28061D01*
X52184Y-28064D01*
X52222Y-28074D01*
X52257Y-28092D01*
X52287Y-28116D01*
X52313Y-28145D01*
X52332Y-28179D01*
X52345Y-28216D01*
X52349Y-28255D01*
X52350Y-28260D01*
X51950Y-28060D02*
X52350Y-28460D01*
X52350Y-28060D02*
X51950Y-28460D01*
X52350Y-29260D02*
X52346Y-29298D01*
X52334Y-29336D01*
X52316Y-29370D01*
X52291Y-29400D01*
X52261Y-29425D01*
X52227Y-29444D01*
X52190Y-29455D01*
X52151Y-29459D01*
X52113Y-29456D01*
X52076Y-29445D01*
X52041Y-29427D01*
X52011Y-29402D01*
X51985Y-29372D01*
X51967Y-29338D01*
X51955Y-29301D01*
X51951Y-29262D01*
X51954Y-29224D01*
X51965Y-29187D01*
X51982Y-29152D01*
X52007Y-29122D01*
X52036Y-29096D01*
X52070Y-29077D01*
X52108Y-29065D01*
X52146Y-29061D01*
X52184Y-29064D01*
X52222Y-29074D01*
X52257Y-29092D01*
X52287Y-29116D01*
X52313Y-29145D01*
X52332Y-29179D01*
X52345Y-29216D01*
X52349Y-29255D01*
X52350Y-29260D01*
X51950Y-29060D02*
X52350Y-29460D01*
X52350Y-29060D02*
X51950Y-29460D01*
X53350Y-28260D02*
X53346Y-28298D01*
X53334Y-28336D01*
X53316Y-28370D01*
X53291Y-28400D01*
X53261Y-28425D01*
X53227Y-28444D01*
X53190Y-28455D01*
X53151Y-28459D01*
X53113Y-28456D01*
X53076Y-28445D01*
X53041Y-28427D01*
X53011Y-28402D01*
X52985Y-28372D01*
X52967Y-28338D01*
X52955Y-28301D01*
X52951Y-28262D01*
X52954Y-28224D01*
X52965Y-28187D01*
X52982Y-28152D01*
X53007Y-28122D01*
X53036Y-28096D01*
X53070Y-28077D01*
X53108Y-28065D01*
X53146Y-28061D01*
X53184Y-28064D01*
X53222Y-28074D01*
X53257Y-28092D01*
X53287Y-28116D01*
X53313Y-28145D01*
X53332Y-28179D01*
X53345Y-28216D01*
X53349Y-28255D01*
X53350Y-28260D01*
X52950Y-28060D02*
X53350Y-28460D01*
X53350Y-28060D02*
X52950Y-28460D01*
X53350Y-29260D02*
X53346Y-29298D01*
X53334Y-29336D01*
X53316Y-29370D01*
X53291Y-29400D01*
X53261Y-29425D01*
X53227Y-29444D01*
X53190Y-29455D01*
X53151Y-29459D01*
X53113Y-29456D01*
X53076Y-29445D01*
X53041Y-29427D01*
X53011Y-29402D01*
X52985Y-29372D01*
X52967Y-29338D01*
X52955Y-29301D01*
X52951Y-29262D01*
X52954Y-29224D01*
X52965Y-29187D01*
X52982Y-29152D01*
X53007Y-29122D01*
X53036Y-29096D01*
X53070Y-29077D01*
X53108Y-29065D01*
X53146Y-29061D01*
X53184Y-29064D01*
X53222Y-29074D01*
X53257Y-29092D01*
X53287Y-29116D01*
X53313Y-29145D01*
X53332Y-29179D01*
X53345Y-29216D01*
X53349Y-29255D01*
X53350Y-29260D01*
X52950Y-29060D02*
X53350Y-29460D01*
X53350Y-29060D02*
X52950Y-29460D01*
X54350Y-28260D02*
X54346Y-28298D01*
X54334Y-28336D01*
X54316Y-28370D01*
X54291Y-28400D01*
X54261Y-28425D01*
X54227Y-28444D01*
X54190Y-28455D01*
X54151Y-28459D01*
X54113Y-28456D01*
X54076Y-28445D01*
X54041Y-28427D01*
X54011Y-28402D01*
X53985Y-28372D01*
X53967Y-28338D01*
X53955Y-28301D01*
X53951Y-28262D01*
X53954Y-28224D01*
X53965Y-28187D01*
X53982Y-28152D01*
X54007Y-28122D01*
X54036Y-28096D01*
X54070Y-28077D01*
X54108Y-28065D01*
X54146Y-28061D01*
X54184Y-28064D01*
X54222Y-28074D01*
X54257Y-28092D01*
X54287Y-28116D01*
X54313Y-28145D01*
X54332Y-28179D01*
X54345Y-28216D01*
X54349Y-28255D01*
X54350Y-28260D01*
X53950Y-28060D02*
X54350Y-28460D01*
X54350Y-28060D02*
X53950Y-28460D01*
X54350Y-29260D02*
X54346Y-29298D01*
X54334Y-29336D01*
X54316Y-29370D01*
X54291Y-29400D01*
X54261Y-29425D01*
X54227Y-29444D01*
X54190Y-29455D01*
X54151Y-29459D01*
X54113Y-29456D01*
X54076Y-29445D01*
X54041Y-29427D01*
X54011Y-29402D01*
X53985Y-29372D01*
X53967Y-29338D01*
X53955Y-29301D01*
X53951Y-29262D01*
X53954Y-29224D01*
X53965Y-29187D01*
X53982Y-29152D01*
X54007Y-29122D01*
X54036Y-29096D01*
X54070Y-29077D01*
X54108Y-29065D01*
X54146Y-29061D01*
X54184Y-29064D01*
X54222Y-29074D01*
X54257Y-29092D01*
X54287Y-29116D01*
X54313Y-29145D01*
X54332Y-29179D01*
X54345Y-29216D01*
X54349Y-29255D01*
X54350Y-29260D01*
X53950Y-29060D02*
X54350Y-29460D01*
X54350Y-29060D02*
X53950Y-29460D01*
X55350Y-28260D02*
X55346Y-28298D01*
X55334Y-28336D01*
X55316Y-28370D01*
X55291Y-28400D01*
X55261Y-28425D01*
X55227Y-28444D01*
X55190Y-28455D01*
X55151Y-28459D01*
X55113Y-28456D01*
X55076Y-28445D01*
X55041Y-28427D01*
X55011Y-28402D01*
X54985Y-28372D01*
X54967Y-28338D01*
X54955Y-28301D01*
X54951Y-28262D01*
X54954Y-28224D01*
X54965Y-28187D01*
X54982Y-28152D01*
X55007Y-28122D01*
X55036Y-28096D01*
X55070Y-28077D01*
X55108Y-28065D01*
X55146Y-28061D01*
X55184Y-28064D01*
X55222Y-28074D01*
X55257Y-28092D01*
X55287Y-28116D01*
X55313Y-28145D01*
X55332Y-28179D01*
X55345Y-28216D01*
X55349Y-28255D01*
X55350Y-28260D01*
X54950Y-28060D02*
X55350Y-28460D01*
X55350Y-28060D02*
X54950Y-28460D01*
X55350Y-29260D02*
X55346Y-29298D01*
X55334Y-29336D01*
X55316Y-29370D01*
X55291Y-29400D01*
X55261Y-29425D01*
X55227Y-29444D01*
X55190Y-29455D01*
X55151Y-29459D01*
X55113Y-29456D01*
X55076Y-29445D01*
X55041Y-29427D01*
X55011Y-29402D01*
X54985Y-29372D01*
X54967Y-29338D01*
X54955Y-29301D01*
X54951Y-29262D01*
X54954Y-29224D01*
X54965Y-29187D01*
X54982Y-29152D01*
X55007Y-29122D01*
X55036Y-29096D01*
X55070Y-29077D01*
X55108Y-29065D01*
X55146Y-29061D01*
X55184Y-29064D01*
X55222Y-29074D01*
X55257Y-29092D01*
X55287Y-29116D01*
X55313Y-29145D01*
X55332Y-29179D01*
X55345Y-29216D01*
X55349Y-29255D01*
X55350Y-29260D01*
X54950Y-29060D02*
X55350Y-29460D01*
X55350Y-29060D02*
X54950Y-29460D01*
X56350Y-28260D02*
X56346Y-28298D01*
X56334Y-28336D01*
X56316Y-28370D01*
X56291Y-28400D01*
X56261Y-28425D01*
X56227Y-28444D01*
X56190Y-28455D01*
X56151Y-28459D01*
X56113Y-28456D01*
X56076Y-28445D01*
X56041Y-28427D01*
X56011Y-28402D01*
X55985Y-28372D01*
X55967Y-28338D01*
X55955Y-28301D01*
X55951Y-28262D01*
X55954Y-28224D01*
X55965Y-28187D01*
X55982Y-28152D01*
X56007Y-28122D01*
X56036Y-28096D01*
X56070Y-28077D01*
X56108Y-28065D01*
X56146Y-28061D01*
X56184Y-28064D01*
X56222Y-28074D01*
X56257Y-28092D01*
X56287Y-28116D01*
X56313Y-28145D01*
X56332Y-28179D01*
X56345Y-28216D01*
X56349Y-28255D01*
X56350Y-28260D01*
X55950Y-28060D02*
X56350Y-28460D01*
X56350Y-28060D02*
X55950Y-28460D01*
X56350Y-29260D02*
X56346Y-29298D01*
X56334Y-29336D01*
X56316Y-29370D01*
X56291Y-29400D01*
X56261Y-29425D01*
X56227Y-29444D01*
X56190Y-29455D01*
X56151Y-29459D01*
X56113Y-29456D01*
X56076Y-29445D01*
X56041Y-29427D01*
X56011Y-29402D01*
X55985Y-29372D01*
X55967Y-29338D01*
X55955Y-29301D01*
X55951Y-29262D01*
X55954Y-29224D01*
X55965Y-29187D01*
X55982Y-29152D01*
X56007Y-29122D01*
X56036Y-29096D01*
X56070Y-29077D01*
X56108Y-29065D01*
X56146Y-29061D01*
X56184Y-29064D01*
X56222Y-29074D01*
X56257Y-29092D01*
X56287Y-29116D01*
X56313Y-29145D01*
X56332Y-29179D01*
X56345Y-29216D01*
X56349Y-29255D01*
X56350Y-29260D01*
X55950Y-29060D02*
X56350Y-29460D01*
X56350Y-29060D02*
X55950Y-29460D01*
X57350Y-28260D02*
X57346Y-28298D01*
X57334Y-28336D01*
X57316Y-28370D01*
X57291Y-28400D01*
X57261Y-28425D01*
X57227Y-28444D01*
X57190Y-28455D01*
X57151Y-28459D01*
X57113Y-28456D01*
X57076Y-28445D01*
X57041Y-28427D01*
X57011Y-28402D01*
X56985Y-28372D01*
X56967Y-28338D01*
X56955Y-28301D01*
X56951Y-28262D01*
X56954Y-28224D01*
X56965Y-28187D01*
X56982Y-28152D01*
X57007Y-28122D01*
X57036Y-28096D01*
X57070Y-28077D01*
X57108Y-28065D01*
X57146Y-28061D01*
X57184Y-28064D01*
X57222Y-28074D01*
X57257Y-28092D01*
X57287Y-28116D01*
X57313Y-28145D01*
X57332Y-28179D01*
X57345Y-28216D01*
X57349Y-28255D01*
X57350Y-28260D01*
X56950Y-28060D02*
X57350Y-28460D01*
X57350Y-28060D02*
X56950Y-28460D01*
X57350Y-29260D02*
X57346Y-29298D01*
X57334Y-29336D01*
X57316Y-29370D01*
X57291Y-29400D01*
X57261Y-29425D01*
X57227Y-29444D01*
X57190Y-29455D01*
X57151Y-29459D01*
X57113Y-29456D01*
X57076Y-29445D01*
X57041Y-29427D01*
X57011Y-29402D01*
X56985Y-29372D01*
X56967Y-29338D01*
X56955Y-29301D01*
X56951Y-29262D01*
X56954Y-29224D01*
X56965Y-29187D01*
X56982Y-29152D01*
X57007Y-29122D01*
X57036Y-29096D01*
X57070Y-29077D01*
X57108Y-29065D01*
X57146Y-29061D01*
X57184Y-29064D01*
X57222Y-29074D01*
X57257Y-29092D01*
X57287Y-29116D01*
X57313Y-29145D01*
X57332Y-29179D01*
X57345Y-29216D01*
X57349Y-29255D01*
X57350Y-29260D01*
X56950Y-29060D02*
X57350Y-29460D01*
X57350Y-29060D02*
X56950Y-29460D01*
X29115Y-43150D02*
X29109Y-43211D01*
X29091Y-43270D01*
X29062Y-43324D01*
X29023Y-43371D01*
X28976Y-43411D01*
X28922Y-43440D01*
X28863Y-43458D01*
X28802Y-43464D01*
X28741Y-43459D01*
X28682Y-43442D01*
X28628Y-43413D01*
X28580Y-43375D01*
X28541Y-43327D01*
X28511Y-43274D01*
X28492Y-43215D01*
X28486Y-43154D01*
X28491Y-43094D01*
X28508Y-43035D01*
X28536Y-42980D01*
X28574Y-42932D01*
X28621Y-42892D01*
X28674Y-42862D01*
X28733Y-42843D01*
X28794Y-42836D01*
X28854Y-42840D01*
X28913Y-42857D01*
X28968Y-42885D01*
X29017Y-42922D01*
X29057Y-42969D01*
X29087Y-43022D01*
X29107Y-43081D01*
X29114Y-43142D01*
X29115Y-43150D01*
X28485Y-43150D02*
X29115Y-43150D01*
X29115Y-48150D02*
X29109Y-48211D01*
X29091Y-48270D01*
X29062Y-48324D01*
X29023Y-48371D01*
X28976Y-48411D01*
X28922Y-48440D01*
X28863Y-48458D01*
X28802Y-48464D01*
X28741Y-48459D01*
X28682Y-48442D01*
X28628Y-48413D01*
X28580Y-48375D01*
X28541Y-48327D01*
X28511Y-48274D01*
X28492Y-48215D01*
X28486Y-48154D01*
X28491Y-48094D01*
X28508Y-48035D01*
X28536Y-47980D01*
X28574Y-47932D01*
X28621Y-47892D01*
X28674Y-47862D01*
X28733Y-47843D01*
X28794Y-47836D01*
X28854Y-47840D01*
X28913Y-47857D01*
X28968Y-47885D01*
X29017Y-47922D01*
X29057Y-47969D01*
X29087Y-48022D01*
X29107Y-48081D01*
X29114Y-48142D01*
X29115Y-48150D01*
X28485Y-48150D02*
X29115Y-48150D01*
X29415Y-36750D02*
X29409Y-36811D01*
X29391Y-36870D01*
X29362Y-36924D01*
X29323Y-36971D01*
X29276Y-37011D01*
X29222Y-37040D01*
X29163Y-37058D01*
X29102Y-37064D01*
X29041Y-37059D01*
X28982Y-37042D01*
X28928Y-37013D01*
X28880Y-36975D01*
X28841Y-36927D01*
X28811Y-36874D01*
X28792Y-36815D01*
X28786Y-36754D01*
X28791Y-36694D01*
X28808Y-36635D01*
X28836Y-36580D01*
X28874Y-36532D01*
X28921Y-36492D01*
X28974Y-36462D01*
X29033Y-36443D01*
X29094Y-36436D01*
X29154Y-36440D01*
X29213Y-36457D01*
X29268Y-36485D01*
X29317Y-36522D01*
X29357Y-36569D01*
X29387Y-36622D01*
X29407Y-36681D01*
X29414Y-36742D01*
X29415Y-36750D01*
X28785Y-36750D02*
X29415Y-36750D01*
X29415Y-41750D02*
X29409Y-41811D01*
X29391Y-41870D01*
X29362Y-41924D01*
X29323Y-41971D01*
X29276Y-42011D01*
X29222Y-42040D01*
X29163Y-42058D01*
X29102Y-42064D01*
X29041Y-42059D01*
X28982Y-42042D01*
X28928Y-42013D01*
X28880Y-41975D01*
X28841Y-41927D01*
X28811Y-41874D01*
X28792Y-41815D01*
X28786Y-41754D01*
X28791Y-41694D01*
X28808Y-41635D01*
X28836Y-41580D01*
X28874Y-41532D01*
X28921Y-41492D01*
X28974Y-41462D01*
X29033Y-41443D01*
X29094Y-41436D01*
X29154Y-41440D01*
X29213Y-41457D01*
X29268Y-41485D01*
X29317Y-41522D01*
X29357Y-41569D01*
X29387Y-41622D01*
X29407Y-41681D01*
X29414Y-41742D01*
X29415Y-41750D01*
X28785Y-41750D02*
X29415Y-41750D01*
X22893Y-37126D02*
X22884Y-37209D01*
X22860Y-37289D01*
X22821Y-37363D01*
X22768Y-37428D01*
X22703Y-37481D01*
X22630Y-37521D01*
X22550Y-37546D01*
X22466Y-37554D01*
X22384Y-37547D01*
X22304Y-37523D01*
X22230Y-37484D01*
X22164Y-37432D01*
X22111Y-37368D01*
X22070Y-37295D01*
X22045Y-37215D01*
X22036Y-37131D01*
X22043Y-37049D01*
X22066Y-36969D01*
X22104Y-36894D01*
X22156Y-36828D01*
X22220Y-36774D01*
X22293Y-36733D01*
X22372Y-36708D01*
X22456Y-36698D01*
X22538Y-36704D01*
X22619Y-36727D01*
X22693Y-36764D01*
X22759Y-36816D01*
X22814Y-36879D01*
X22855Y-36952D01*
X22882Y-37031D01*
X22892Y-37115D01*
X22893Y-37126D01*
X22464Y-36697D02*
X22464Y-37555D01*
X24121Y-38898D02*
X24112Y-38981D01*
X24088Y-39061D01*
X24049Y-39135D01*
X23996Y-39200D01*
X23931Y-39253D01*
X23858Y-39293D01*
X23778Y-39318D01*
X23694Y-39326D01*
X23612Y-39319D01*
X23532Y-39295D01*
X23458Y-39256D01*
X23392Y-39204D01*
X23339Y-39140D01*
X23298Y-39067D01*
X23273Y-38987D01*
X23264Y-38903D01*
X23271Y-38821D01*
X23294Y-38741D01*
X23332Y-38666D01*
X23384Y-38600D01*
X23448Y-38546D01*
X23521Y-38505D01*
X23600Y-38480D01*
X23684Y-38470D01*
X23766Y-38476D01*
X23847Y-38499D01*
X23921Y-38536D01*
X23987Y-38588D01*
X24042Y-38651D01*
X24083Y-38724D01*
X24110Y-38803D01*
X24120Y-38887D01*
X24121Y-38898D01*
X23692Y-38469D02*
X23692Y-39327D01*
X25302Y-37126D02*
X25293Y-37209D01*
X25269Y-37289D01*
X25230Y-37363D01*
X25177Y-37428D01*
X25112Y-37481D01*
X25039Y-37521D01*
X24959Y-37546D01*
X24875Y-37554D01*
X24793Y-37547D01*
X24713Y-37523D01*
X24639Y-37484D01*
X24573Y-37432D01*
X24520Y-37368D01*
X24479Y-37295D01*
X24454Y-37215D01*
X24445Y-37131D01*
X24452Y-37049D01*
X24475Y-36969D01*
X24513Y-36894D01*
X24565Y-36828D01*
X24629Y-36774D01*
X24702Y-36733D01*
X24781Y-36708D01*
X24865Y-36698D01*
X24947Y-36704D01*
X25028Y-36727D01*
X25102Y-36764D01*
X25168Y-36816D01*
X25223Y-36879D01*
X25264Y-36952D01*
X25291Y-37031D01*
X25301Y-37115D01*
X25302Y-37126D01*
X24873Y-36697D02*
X24873Y-37555D01*
X26424Y-41524D02*
X26424Y-40676D01*
X25576Y-40676D01*
X25576Y-41524D01*
X26424Y-41524D01*
X26424Y-51324D02*
X26424Y-50476D01*
X25576Y-50476D01*
X25576Y-51324D01*
X26424Y-51324D01*
X22840Y-34190D02*
X23470Y-33560D01*
X22840Y-32930D01*
X22210Y-33560D01*
X22840Y-34190D01*
X23293Y-29503D02*
X23293Y-28597D01*
X22387Y-28597D01*
X22387Y-29503D01*
X23293Y-29503D01*
X22200Y-28410D02*
X23480Y-29690D01*
X23480Y-28410D02*
X22200Y-29690D01*
G54D12*
X19207Y-55400D02*
X19207Y-54600D01*
X19398Y-54600D01*
X19512Y-54638D01*
X19588Y-54714D01*
X19627Y-54790D01*
X19665Y-54943D01*
X19665Y-55057D01*
X19627Y-55209D01*
X19588Y-55286D01*
X19512Y-55362D01*
X19398Y-55400D01*
X19207Y-55400D01*
X20007Y-55400D02*
X20007Y-54866D01*
X20007Y-55019D02*
X20046Y-54943D01*
X20084Y-54905D01*
X20160Y-54866D01*
X20236Y-54866D01*
X20502Y-55400D02*
X20502Y-54866D01*
X20502Y-54600D02*
X20464Y-54638D01*
X20502Y-54676D01*
X20541Y-54638D01*
X20502Y-54600D01*
X20502Y-54676D01*
X20998Y-55400D02*
X20922Y-55362D01*
X20883Y-55286D01*
X20883Y-54600D01*
X21417Y-55400D02*
X21341Y-55362D01*
X21302Y-55286D01*
X21302Y-54600D01*
X22331Y-55400D02*
X22331Y-54600D01*
X22598Y-55171D01*
X22865Y-54600D01*
X22865Y-55400D01*
X23588Y-55400D02*
X23588Y-54981D01*
X23550Y-54905D01*
X23474Y-54866D01*
X23322Y-54866D01*
X23245Y-54905D01*
X23588Y-55362D02*
X23512Y-55400D01*
X23322Y-55400D01*
X23245Y-55362D01*
X23207Y-55286D01*
X23207Y-55209D01*
X23245Y-55133D01*
X23322Y-55095D01*
X23512Y-55095D01*
X23588Y-55057D01*
X23969Y-54866D02*
X23969Y-55666D01*
X23969Y-54905D02*
X24046Y-54866D01*
X24198Y-54866D01*
X24274Y-54905D01*
X24312Y-54943D01*
X24350Y-55019D01*
X24350Y-55247D01*
X24312Y-55324D01*
X24274Y-55362D01*
X24198Y-55400D01*
X24046Y-55400D01*
X23969Y-55362D01*
X24693Y-55324D02*
X24732Y-55362D01*
X24693Y-55400D01*
X24655Y-55362D01*
X24693Y-55324D01*
X24693Y-55400D01*
X24693Y-54905D02*
X24732Y-54943D01*
X24693Y-54981D01*
X24655Y-54943D01*
X24693Y-54905D01*
X24693Y-54981D01*
X18567Y-56631D02*
X18817Y-56881D01*
X18817Y-56631D02*
X18567Y-56881D01*
X19360Y-56280D02*
X19436Y-56280D01*
X19512Y-56318D01*
X19550Y-56356D01*
X19588Y-56432D01*
X19627Y-56585D01*
X19627Y-56775D01*
X19588Y-56927D01*
X19550Y-57004D01*
X19512Y-57042D01*
X19436Y-57080D01*
X19360Y-57080D01*
X19284Y-57042D01*
X19246Y-57004D01*
X19207Y-56927D01*
X19169Y-56775D01*
X19169Y-56585D01*
X19207Y-56432D01*
X19246Y-56356D01*
X19284Y-56318D01*
X19360Y-56280D01*
X19969Y-57004D02*
X20008Y-57042D01*
X19969Y-57080D01*
X19931Y-57042D01*
X19969Y-57004D01*
X19969Y-57080D01*
X20503Y-56280D02*
X20579Y-56280D01*
X20655Y-56318D01*
X20693Y-56356D01*
X20731Y-56432D01*
X20770Y-56585D01*
X20770Y-56775D01*
X20731Y-56927D01*
X20693Y-57004D01*
X20655Y-57042D01*
X20579Y-57080D01*
X20503Y-57080D01*
X20427Y-57042D01*
X20389Y-57004D01*
X20350Y-56927D01*
X20312Y-56775D01*
X20312Y-56585D01*
X20350Y-56432D01*
X20389Y-56356D01*
X20427Y-56318D01*
X20503Y-56280D01*
X21074Y-56356D02*
X21112Y-56318D01*
X21189Y-56280D01*
X21379Y-56280D01*
X21455Y-56318D01*
X21493Y-56356D01*
X21532Y-56432D01*
X21532Y-56508D01*
X21493Y-56623D01*
X21036Y-57080D01*
X21532Y-57080D01*
X22255Y-56280D02*
X21874Y-56280D01*
X21836Y-56661D01*
X21874Y-56623D01*
X21951Y-56585D01*
X22141Y-56585D01*
X22217Y-56623D01*
X22255Y-56661D01*
X22294Y-56737D01*
X22294Y-56927D01*
X22255Y-57004D01*
X22217Y-57042D01*
X22141Y-57080D01*
X21951Y-57080D01*
X21874Y-57042D01*
X21836Y-57004D01*
X22598Y-56280D02*
X22598Y-56432D01*
X22903Y-56280D02*
X22903Y-56432D01*
X24428Y-56242D02*
X23742Y-57270D01*
X25457Y-56280D02*
X25533Y-56280D01*
X25609Y-56318D01*
X25647Y-56356D01*
X25685Y-56432D01*
X25724Y-56585D01*
X25724Y-56775D01*
X25685Y-56927D01*
X25647Y-57004D01*
X25609Y-57042D01*
X25533Y-57080D01*
X25457Y-57080D01*
X25381Y-57042D01*
X25343Y-57004D01*
X25304Y-56927D01*
X25266Y-56775D01*
X25266Y-56585D01*
X25304Y-56432D01*
X25343Y-56356D01*
X25381Y-56318D01*
X25457Y-56280D01*
X26066Y-57004D02*
X26105Y-57042D01*
X26066Y-57080D01*
X26028Y-57042D01*
X26066Y-57004D01*
X26066Y-57080D01*
X26790Y-56280D02*
X26638Y-56280D01*
X26562Y-56318D01*
X26524Y-56356D01*
X26447Y-56470D01*
X26409Y-56623D01*
X26409Y-56927D01*
X26447Y-57004D01*
X26486Y-57042D01*
X26562Y-57080D01*
X26714Y-57080D01*
X26790Y-57042D01*
X26828Y-57004D01*
X26867Y-56927D01*
X26867Y-56737D01*
X26828Y-56661D01*
X26790Y-56623D01*
X26714Y-56585D01*
X26562Y-56585D01*
X26486Y-56623D01*
X26447Y-56661D01*
X26409Y-56737D01*
X27552Y-56546D02*
X27552Y-57080D01*
X27362Y-56242D02*
X27171Y-56813D01*
X27667Y-56813D01*
X27971Y-57080D02*
X27971Y-56546D01*
X27971Y-56623D02*
X28010Y-56585D01*
X28086Y-56546D01*
X28200Y-56546D01*
X28276Y-56585D01*
X28314Y-56661D01*
X28314Y-57080D01*
X28314Y-56661D02*
X28352Y-56585D01*
X28429Y-56546D01*
X28543Y-56546D01*
X28619Y-56585D01*
X28657Y-56661D01*
X28657Y-57080D01*
X29038Y-57080D02*
X29038Y-56546D01*
X29038Y-56623D02*
X29077Y-56585D01*
X29153Y-56546D01*
X29267Y-56546D01*
X29343Y-56585D01*
X29381Y-56661D01*
X29381Y-57080D01*
X29381Y-56661D02*
X29419Y-56585D01*
X29496Y-56546D01*
X29610Y-56546D01*
X29686Y-56585D01*
X29724Y-56661D01*
X29724Y-57080D01*
X30944Y-57385D02*
X30906Y-57346D01*
X30830Y-57232D01*
X30792Y-57156D01*
X30754Y-57042D01*
X30715Y-56851D01*
X30715Y-56699D01*
X30754Y-56508D01*
X30792Y-56394D01*
X30830Y-56318D01*
X30906Y-56204D01*
X30944Y-56166D01*
X31363Y-56623D02*
X31287Y-56585D01*
X31248Y-56546D01*
X31210Y-56470D01*
X31210Y-56432D01*
X31248Y-56356D01*
X31287Y-56318D01*
X31363Y-56280D01*
X31515Y-56280D01*
X31591Y-56318D01*
X31629Y-56356D01*
X31668Y-56432D01*
X31668Y-56470D01*
X31629Y-56546D01*
X31591Y-56585D01*
X31515Y-56623D01*
X31363Y-56623D01*
X31287Y-56661D01*
X31248Y-56699D01*
X31210Y-56775D01*
X31210Y-56927D01*
X31248Y-57004D01*
X31287Y-57042D01*
X31363Y-57080D01*
X31515Y-57080D01*
X31591Y-57042D01*
X31629Y-57004D01*
X31668Y-56927D01*
X31668Y-56775D01*
X31629Y-56699D01*
X31591Y-56661D01*
X31515Y-56623D01*
X31934Y-56280D02*
X32468Y-56280D01*
X32125Y-57080D01*
X33382Y-57080D02*
X33382Y-56280D01*
X33725Y-57080D02*
X33725Y-56661D01*
X33687Y-56585D01*
X33611Y-56546D01*
X33497Y-56546D01*
X33421Y-56585D01*
X33382Y-56623D01*
X34221Y-57080D02*
X34145Y-57042D01*
X34106Y-57004D01*
X34068Y-56927D01*
X34068Y-56699D01*
X34106Y-56623D01*
X34145Y-56585D01*
X34221Y-56546D01*
X34335Y-56546D01*
X34411Y-56585D01*
X34449Y-56623D01*
X34487Y-56699D01*
X34487Y-56927D01*
X34449Y-57004D01*
X34411Y-57042D01*
X34335Y-57080D01*
X34221Y-57080D01*
X34945Y-57080D02*
X34869Y-57042D01*
X34830Y-56966D01*
X34830Y-56280D01*
X35554Y-57042D02*
X35478Y-57080D01*
X35326Y-57080D01*
X35249Y-57042D01*
X35211Y-56966D01*
X35211Y-56661D01*
X35249Y-56585D01*
X35326Y-56546D01*
X35478Y-56546D01*
X35554Y-56585D01*
X35592Y-56661D01*
X35592Y-56737D01*
X35211Y-56813D01*
X35897Y-57042D02*
X35974Y-57080D01*
X36126Y-57080D01*
X36202Y-57042D01*
X36240Y-56966D01*
X36240Y-56927D01*
X36202Y-56851D01*
X36126Y-56813D01*
X36012Y-56813D01*
X35935Y-56775D01*
X35897Y-56699D01*
X35897Y-56661D01*
X35935Y-56585D01*
X36012Y-56546D01*
X36126Y-56546D01*
X36202Y-56585D01*
X36507Y-57385D02*
X36545Y-57346D01*
X36622Y-57232D01*
X36660Y-57156D01*
X36698Y-57042D01*
X36736Y-56851D01*
X36736Y-56699D01*
X36698Y-56508D01*
X36660Y-56394D01*
X36622Y-56318D01*
X36545Y-56204D01*
X36507Y-56166D01*
G54D10*
X18817Y-57811D02*
X18813Y-57844D01*
X18803Y-57877D01*
X18787Y-57907D01*
X18766Y-57934D01*
X18739Y-57956D01*
X18709Y-57972D01*
X18677Y-57982D01*
X18643Y-57985D01*
X18610Y-57982D01*
X18577Y-57973D01*
X18547Y-57957D01*
X18520Y-57936D01*
X18498Y-57909D01*
X18482Y-57879D01*
X18471Y-57847D01*
X18468Y-57813D01*
X18470Y-57780D01*
X18480Y-57747D01*
X18495Y-57717D01*
X18517Y-57690D01*
X18543Y-57668D01*
X18572Y-57651D01*
X18605Y-57641D01*
X18639Y-57637D01*
X18672Y-57639D01*
X18705Y-57648D01*
X18735Y-57664D01*
X18762Y-57685D01*
X18785Y-57711D01*
X18801Y-57740D01*
X18812Y-57773D01*
X18816Y-57807D01*
X18817Y-57811D01*
G54D12*
X19360Y-57335D02*
X19436Y-57335D01*
X19512Y-57373D01*
X19550Y-57411D01*
X19588Y-57487D01*
X19627Y-57640D01*
X19627Y-57830D01*
X19588Y-57982D01*
X19550Y-58059D01*
X19512Y-58097D01*
X19436Y-58135D01*
X19360Y-58135D01*
X19284Y-58097D01*
X19246Y-58059D01*
X19207Y-57982D01*
X19169Y-57830D01*
X19169Y-57640D01*
X19207Y-57487D01*
X19246Y-57411D01*
X19284Y-57373D01*
X19360Y-57335D01*
X19969Y-58059D02*
X20008Y-58097D01*
X19969Y-58135D01*
X19931Y-58097D01*
X19969Y-58059D01*
X19969Y-58135D01*
X20503Y-57335D02*
X20579Y-57335D01*
X20655Y-57373D01*
X20693Y-57411D01*
X20731Y-57487D01*
X20770Y-57640D01*
X20770Y-57830D01*
X20731Y-57982D01*
X20693Y-58059D01*
X20655Y-58097D01*
X20579Y-58135D01*
X20503Y-58135D01*
X20427Y-58097D01*
X20389Y-58059D01*
X20350Y-57982D01*
X20312Y-57830D01*
X20312Y-57640D01*
X20350Y-57487D01*
X20389Y-57411D01*
X20427Y-57373D01*
X20503Y-57335D01*
X21036Y-57335D02*
X21532Y-57335D01*
X21265Y-57640D01*
X21379Y-57640D01*
X21455Y-57678D01*
X21493Y-57716D01*
X21532Y-57792D01*
X21532Y-57982D01*
X21493Y-58059D01*
X21455Y-58097D01*
X21379Y-58135D01*
X21151Y-58135D01*
X21074Y-58097D01*
X21036Y-58059D01*
X22255Y-57335D02*
X21874Y-57335D01*
X21836Y-57716D01*
X21874Y-57678D01*
X21951Y-57640D01*
X22141Y-57640D01*
X22217Y-57678D01*
X22255Y-57716D01*
X22294Y-57792D01*
X22294Y-57982D01*
X22255Y-58059D01*
X22217Y-58097D01*
X22141Y-58135D01*
X21951Y-58135D01*
X21874Y-58097D01*
X21836Y-58059D01*
X22598Y-57335D02*
X22598Y-57487D01*
X22903Y-57335D02*
X22903Y-57487D01*
X24428Y-57297D02*
X23742Y-58325D01*
X25457Y-57335D02*
X25533Y-57335D01*
X25609Y-57373D01*
X25647Y-57411D01*
X25685Y-57487D01*
X25724Y-57640D01*
X25724Y-57830D01*
X25685Y-57982D01*
X25647Y-58059D01*
X25609Y-58097D01*
X25533Y-58135D01*
X25457Y-58135D01*
X25381Y-58097D01*
X25343Y-58059D01*
X25304Y-57982D01*
X25266Y-57830D01*
X25266Y-57640D01*
X25304Y-57487D01*
X25343Y-57411D01*
X25381Y-57373D01*
X25457Y-57335D01*
X26066Y-58059D02*
X26105Y-58097D01*
X26066Y-58135D01*
X26028Y-58097D01*
X26066Y-58059D01*
X26066Y-58135D01*
X26562Y-57678D02*
X26486Y-57640D01*
X26447Y-57601D01*
X26409Y-57525D01*
X26409Y-57487D01*
X26447Y-57411D01*
X26486Y-57373D01*
X26562Y-57335D01*
X26714Y-57335D01*
X26790Y-57373D01*
X26828Y-57411D01*
X26867Y-57487D01*
X26867Y-57525D01*
X26828Y-57601D01*
X26790Y-57640D01*
X26714Y-57678D01*
X26562Y-57678D01*
X26486Y-57716D01*
X26447Y-57754D01*
X26409Y-57830D01*
X26409Y-57982D01*
X26447Y-58059D01*
X26486Y-58097D01*
X26562Y-58135D01*
X26714Y-58135D01*
X26790Y-58097D01*
X26828Y-58059D01*
X26867Y-57982D01*
X26867Y-57830D01*
X26828Y-57754D01*
X26790Y-57716D01*
X26714Y-57678D01*
X27248Y-58135D02*
X27400Y-58135D01*
X27476Y-58097D01*
X27514Y-58059D01*
X27590Y-57944D01*
X27629Y-57792D01*
X27629Y-57487D01*
X27590Y-57411D01*
X27552Y-57373D01*
X27476Y-57335D01*
X27324Y-57335D01*
X27248Y-57373D01*
X27209Y-57411D01*
X27171Y-57487D01*
X27171Y-57678D01*
X27209Y-57754D01*
X27248Y-57792D01*
X27324Y-57830D01*
X27476Y-57830D01*
X27552Y-57792D01*
X27590Y-57754D01*
X27629Y-57678D01*
X27971Y-58135D02*
X27971Y-57601D01*
X27971Y-57678D02*
X28010Y-57640D01*
X28086Y-57601D01*
X28200Y-57601D01*
X28276Y-57640D01*
X28314Y-57716D01*
X28314Y-58135D01*
X28314Y-57716D02*
X28352Y-57640D01*
X28429Y-57601D01*
X28543Y-57601D01*
X28619Y-57640D01*
X28657Y-57716D01*
X28657Y-58135D01*
X29038Y-58135D02*
X29038Y-57601D01*
X29038Y-57678D02*
X29077Y-57640D01*
X29153Y-57601D01*
X29267Y-57601D01*
X29343Y-57640D01*
X29381Y-57716D01*
X29381Y-58135D01*
X29381Y-57716D02*
X29419Y-57640D01*
X29496Y-57601D01*
X29610Y-57601D01*
X29686Y-57640D01*
X29724Y-57716D01*
X29724Y-58135D01*
X30944Y-58440D02*
X30906Y-58401D01*
X30830Y-58287D01*
X30792Y-58211D01*
X30754Y-58097D01*
X30715Y-57906D01*
X30715Y-57754D01*
X30754Y-57563D01*
X30792Y-57449D01*
X30830Y-57373D01*
X30906Y-57259D01*
X30944Y-57221D01*
X31363Y-57678D02*
X31287Y-57640D01*
X31248Y-57601D01*
X31210Y-57525D01*
X31210Y-57487D01*
X31248Y-57411D01*
X31287Y-57373D01*
X31363Y-57335D01*
X31515Y-57335D01*
X31591Y-57373D01*
X31629Y-57411D01*
X31668Y-57487D01*
X31668Y-57525D01*
X31629Y-57601D01*
X31591Y-57640D01*
X31515Y-57678D01*
X31363Y-57678D01*
X31287Y-57716D01*
X31248Y-57754D01*
X31210Y-57830D01*
X31210Y-57982D01*
X31248Y-58059D01*
X31287Y-58097D01*
X31363Y-58135D01*
X31515Y-58135D01*
X31591Y-58097D01*
X31629Y-58059D01*
X31668Y-57982D01*
X31668Y-57830D01*
X31629Y-57754D01*
X31591Y-57716D01*
X31515Y-57678D01*
X32620Y-58135D02*
X32620Y-57335D01*
X32963Y-58135D02*
X32963Y-57716D01*
X32925Y-57640D01*
X32849Y-57601D01*
X32735Y-57601D01*
X32659Y-57640D01*
X32620Y-57678D01*
X33459Y-58135D02*
X33383Y-58097D01*
X33344Y-58059D01*
X33306Y-57982D01*
X33306Y-57754D01*
X33344Y-57678D01*
X33383Y-57640D01*
X33459Y-57601D01*
X33573Y-57601D01*
X33649Y-57640D01*
X33687Y-57678D01*
X33725Y-57754D01*
X33725Y-57982D01*
X33687Y-58059D01*
X33649Y-58097D01*
X33573Y-58135D01*
X33459Y-58135D01*
X34183Y-58135D02*
X34107Y-58097D01*
X34068Y-58021D01*
X34068Y-57335D01*
X34792Y-58097D02*
X34716Y-58135D01*
X34564Y-58135D01*
X34487Y-58097D01*
X34449Y-58021D01*
X34449Y-57716D01*
X34487Y-57640D01*
X34564Y-57601D01*
X34716Y-57601D01*
X34792Y-57640D01*
X34830Y-57716D01*
X34830Y-57792D01*
X34449Y-57868D01*
X35135Y-58097D02*
X35212Y-58135D01*
X35364Y-58135D01*
X35440Y-58097D01*
X35478Y-58021D01*
X35478Y-57982D01*
X35440Y-57906D01*
X35364Y-57868D01*
X35250Y-57868D01*
X35173Y-57830D01*
X35135Y-57754D01*
X35135Y-57716D01*
X35173Y-57640D01*
X35250Y-57601D01*
X35364Y-57601D01*
X35440Y-57640D01*
X35745Y-58440D02*
X35783Y-58401D01*
X35860Y-58287D01*
X35898Y-58211D01*
X35936Y-58097D01*
X35974Y-57906D01*
X35974Y-57754D01*
X35936Y-57563D01*
X35898Y-57449D01*
X35860Y-57373D01*
X35783Y-57259D01*
X35745Y-57221D01*
X18620Y-58669D02*
X18620Y-59063D01*
X18817Y-58866D02*
X18423Y-58866D01*
X19360Y-58390D02*
X19436Y-58390D01*
X19512Y-58428D01*
X19550Y-58466D01*
X19588Y-58542D01*
X19627Y-58695D01*
X19627Y-58885D01*
X19588Y-59037D01*
X19550Y-59114D01*
X19512Y-59152D01*
X19436Y-59190D01*
X19360Y-59190D01*
X19284Y-59152D01*
X19246Y-59114D01*
X19207Y-59037D01*
X19169Y-58885D01*
X19169Y-58695D01*
X19207Y-58542D01*
X19246Y-58466D01*
X19284Y-58428D01*
X19360Y-58390D01*
X19969Y-59114D02*
X20008Y-59152D01*
X19969Y-59190D01*
X19931Y-59152D01*
X19969Y-59114D01*
X19969Y-59190D01*
X20503Y-58390D02*
X20579Y-58390D01*
X20655Y-58428D01*
X20693Y-58466D01*
X20731Y-58542D01*
X20770Y-58695D01*
X20770Y-58885D01*
X20731Y-59037D01*
X20693Y-59114D01*
X20655Y-59152D01*
X20579Y-59190D01*
X20503Y-59190D01*
X20427Y-59152D01*
X20389Y-59114D01*
X20350Y-59037D01*
X20312Y-58885D01*
X20312Y-58695D01*
X20350Y-58542D01*
X20389Y-58466D01*
X20427Y-58428D01*
X20503Y-58390D01*
X21036Y-58390D02*
X21532Y-58390D01*
X21265Y-58695D01*
X21379Y-58695D01*
X21455Y-58733D01*
X21493Y-58771D01*
X21532Y-58847D01*
X21532Y-59037D01*
X21493Y-59114D01*
X21455Y-59152D01*
X21379Y-59190D01*
X21151Y-59190D01*
X21074Y-59152D01*
X21036Y-59114D01*
X21913Y-59190D02*
X22065Y-59190D01*
X22141Y-59152D01*
X22179Y-59114D01*
X22255Y-58999D01*
X22294Y-58847D01*
X22294Y-58542D01*
X22255Y-58466D01*
X22217Y-58428D01*
X22141Y-58390D01*
X21989Y-58390D01*
X21913Y-58428D01*
X21874Y-58466D01*
X21836Y-58542D01*
X21836Y-58733D01*
X21874Y-58809D01*
X21913Y-58847D01*
X21989Y-58885D01*
X22141Y-58885D01*
X22217Y-58847D01*
X22255Y-58809D01*
X22294Y-58733D01*
X22598Y-58390D02*
X22598Y-58542D01*
X22903Y-58390D02*
X22903Y-58542D01*
X24428Y-58352D02*
X23742Y-59380D01*
X25724Y-59190D02*
X25266Y-59190D01*
X25495Y-59190D02*
X25495Y-58390D01*
X25419Y-58504D01*
X25343Y-58580D01*
X25266Y-58618D01*
X26066Y-59114D02*
X26105Y-59152D01*
X26066Y-59190D01*
X26028Y-59152D01*
X26066Y-59114D01*
X26066Y-59190D01*
X26600Y-58390D02*
X26676Y-58390D01*
X26752Y-58428D01*
X26790Y-58466D01*
X26828Y-58542D01*
X26867Y-58695D01*
X26867Y-58885D01*
X26828Y-59037D01*
X26790Y-59114D01*
X26752Y-59152D01*
X26676Y-59190D01*
X26600Y-59190D01*
X26524Y-59152D01*
X26486Y-59114D01*
X26447Y-59037D01*
X26409Y-58885D01*
X26409Y-58695D01*
X26447Y-58542D01*
X26486Y-58466D01*
X26524Y-58428D01*
X26600Y-58390D01*
X27362Y-58390D02*
X27438Y-58390D01*
X27514Y-58428D01*
X27552Y-58466D01*
X27590Y-58542D01*
X27629Y-58695D01*
X27629Y-58885D01*
X27590Y-59037D01*
X27552Y-59114D01*
X27514Y-59152D01*
X27438Y-59190D01*
X27362Y-59190D01*
X27286Y-59152D01*
X27248Y-59114D01*
X27209Y-59037D01*
X27171Y-58885D01*
X27171Y-58695D01*
X27209Y-58542D01*
X27248Y-58466D01*
X27286Y-58428D01*
X27362Y-58390D01*
X27971Y-59190D02*
X27971Y-58656D01*
X27971Y-58733D02*
X28010Y-58695D01*
X28086Y-58656D01*
X28200Y-58656D01*
X28276Y-58695D01*
X28314Y-58771D01*
X28314Y-59190D01*
X28314Y-58771D02*
X28352Y-58695D01*
X28429Y-58656D01*
X28543Y-58656D01*
X28619Y-58695D01*
X28657Y-58771D01*
X28657Y-59190D01*
X29038Y-59190D02*
X29038Y-58656D01*
X29038Y-58733D02*
X29077Y-58695D01*
X29153Y-58656D01*
X29267Y-58656D01*
X29343Y-58695D01*
X29381Y-58771D01*
X29381Y-59190D01*
X29381Y-58771D02*
X29419Y-58695D01*
X29496Y-58656D01*
X29610Y-58656D01*
X29686Y-58695D01*
X29724Y-58771D01*
X29724Y-59190D01*
X30944Y-59495D02*
X30906Y-59456D01*
X30830Y-59342D01*
X30792Y-59266D01*
X30754Y-59152D01*
X30715Y-58961D01*
X30715Y-58809D01*
X30754Y-58618D01*
X30792Y-58504D01*
X30830Y-58428D01*
X30906Y-58314D01*
X30944Y-58276D01*
X31668Y-59190D02*
X31210Y-59190D01*
X31439Y-59190D02*
X31439Y-58390D01*
X31363Y-58504D01*
X31287Y-58580D01*
X31210Y-58618D01*
X32353Y-58656D02*
X32353Y-59190D01*
X32163Y-58352D02*
X31972Y-58923D01*
X32468Y-58923D01*
X33382Y-59190D02*
X33382Y-58390D01*
X33725Y-59190D02*
X33725Y-58771D01*
X33687Y-58695D01*
X33611Y-58656D01*
X33497Y-58656D01*
X33421Y-58695D01*
X33382Y-58733D01*
X34221Y-59190D02*
X34145Y-59152D01*
X34106Y-59114D01*
X34068Y-59037D01*
X34068Y-58809D01*
X34106Y-58733D01*
X34145Y-58695D01*
X34221Y-58656D01*
X34335Y-58656D01*
X34411Y-58695D01*
X34449Y-58733D01*
X34487Y-58809D01*
X34487Y-59037D01*
X34449Y-59114D01*
X34411Y-59152D01*
X34335Y-59190D01*
X34221Y-59190D01*
X34945Y-59190D02*
X34869Y-59152D01*
X34830Y-59076D01*
X34830Y-58390D01*
X35554Y-59152D02*
X35478Y-59190D01*
X35326Y-59190D01*
X35249Y-59152D01*
X35211Y-59076D01*
X35211Y-58771D01*
X35249Y-58695D01*
X35326Y-58656D01*
X35478Y-58656D01*
X35554Y-58695D01*
X35592Y-58771D01*
X35592Y-58847D01*
X35211Y-58923D01*
X35897Y-59152D02*
X35974Y-59190D01*
X36126Y-59190D01*
X36202Y-59152D01*
X36240Y-59076D01*
X36240Y-59037D01*
X36202Y-58961D01*
X36126Y-58923D01*
X36012Y-58923D01*
X35935Y-58885D01*
X35897Y-58809D01*
X35897Y-58771D01*
X35935Y-58695D01*
X36012Y-58656D01*
X36126Y-58656D01*
X36202Y-58695D01*
X36507Y-59495D02*
X36545Y-59456D01*
X36622Y-59342D01*
X36660Y-59266D01*
X36698Y-59152D01*
X36736Y-58961D01*
X36736Y-58809D01*
X36698Y-58618D01*
X36660Y-58504D01*
X36622Y-58428D01*
X36545Y-58314D01*
X36507Y-58276D01*
G54D10*
X18817Y-59921D02*
X18813Y-59959D01*
X18801Y-59997D01*
X18783Y-60031D01*
X18758Y-60061D01*
X18728Y-60086D01*
X18694Y-60105D01*
X18657Y-60116D01*
X18618Y-60120D01*
X18580Y-60117D01*
X18543Y-60106D01*
X18508Y-60088D01*
X18478Y-60063D01*
X18452Y-60033D01*
X18434Y-59999D01*
X18422Y-59962D01*
X18418Y-59923D01*
X18421Y-59885D01*
X18432Y-59848D01*
X18449Y-59813D01*
X18474Y-59783D01*
X18503Y-59757D01*
X18537Y-59738D01*
X18575Y-59726D01*
X18613Y-59722D01*
X18651Y-59725D01*
X18689Y-59735D01*
X18724Y-59753D01*
X18754Y-59777D01*
X18780Y-59806D01*
X18799Y-59840D01*
X18812Y-59877D01*
X18816Y-59916D01*
X18817Y-59921D01*
X18417Y-59721D02*
X18817Y-60121D01*
X18817Y-59721D02*
X18417Y-60121D01*
G54D12*
X19360Y-59445D02*
X19436Y-59445D01*
X19512Y-59483D01*
X19550Y-59521D01*
X19588Y-59597D01*
X19627Y-59750D01*
X19627Y-59940D01*
X19588Y-60092D01*
X19550Y-60169D01*
X19512Y-60207D01*
X19436Y-60245D01*
X19360Y-60245D01*
X19284Y-60207D01*
X19246Y-60169D01*
X19207Y-60092D01*
X19169Y-59940D01*
X19169Y-59750D01*
X19207Y-59597D01*
X19246Y-59521D01*
X19284Y-59483D01*
X19360Y-59445D01*
X19969Y-60169D02*
X20008Y-60207D01*
X19969Y-60245D01*
X19931Y-60207D01*
X19969Y-60169D01*
X19969Y-60245D01*
X20503Y-59445D02*
X20579Y-59445D01*
X20655Y-59483D01*
X20693Y-59521D01*
X20731Y-59597D01*
X20770Y-59750D01*
X20770Y-59940D01*
X20731Y-60092D01*
X20693Y-60169D01*
X20655Y-60207D01*
X20579Y-60245D01*
X20503Y-60245D01*
X20427Y-60207D01*
X20389Y-60169D01*
X20350Y-60092D01*
X20312Y-59940D01*
X20312Y-59750D01*
X20350Y-59597D01*
X20389Y-59521D01*
X20427Y-59483D01*
X20503Y-59445D01*
X21455Y-59711D02*
X21455Y-60245D01*
X21265Y-59407D02*
X21074Y-59978D01*
X21570Y-59978D01*
X22027Y-59445D02*
X22103Y-59445D01*
X22179Y-59483D01*
X22217Y-59521D01*
X22255Y-59597D01*
X22294Y-59750D01*
X22294Y-59940D01*
X22255Y-60092D01*
X22217Y-60169D01*
X22179Y-60207D01*
X22103Y-60245D01*
X22027Y-60245D01*
X21951Y-60207D01*
X21913Y-60169D01*
X21874Y-60092D01*
X21836Y-59940D01*
X21836Y-59750D01*
X21874Y-59597D01*
X21913Y-59521D01*
X21951Y-59483D01*
X22027Y-59445D01*
X22598Y-59445D02*
X22598Y-59597D01*
X22903Y-59445D02*
X22903Y-59597D01*
X24428Y-59407D02*
X23742Y-60435D01*
X25724Y-60245D02*
X25266Y-60245D01*
X25495Y-60245D02*
X25495Y-59445D01*
X25419Y-59559D01*
X25343Y-59635D01*
X25266Y-59673D01*
X26066Y-60169D02*
X26105Y-60207D01*
X26066Y-60245D01*
X26028Y-60207D01*
X26066Y-60169D01*
X26066Y-60245D01*
X26600Y-59445D02*
X26676Y-59445D01*
X26752Y-59483D01*
X26790Y-59521D01*
X26828Y-59597D01*
X26867Y-59750D01*
X26867Y-59940D01*
X26828Y-60092D01*
X26790Y-60169D01*
X26752Y-60207D01*
X26676Y-60245D01*
X26600Y-60245D01*
X26524Y-60207D01*
X26486Y-60169D01*
X26447Y-60092D01*
X26409Y-59940D01*
X26409Y-59750D01*
X26447Y-59597D01*
X26486Y-59521D01*
X26524Y-59483D01*
X26600Y-59445D01*
X27171Y-59521D02*
X27209Y-59483D01*
X27286Y-59445D01*
X27476Y-59445D01*
X27552Y-59483D01*
X27590Y-59521D01*
X27629Y-59597D01*
X27629Y-59673D01*
X27590Y-59788D01*
X27133Y-60245D01*
X27629Y-60245D01*
X27971Y-60245D02*
X27971Y-59711D01*
X27971Y-59788D02*
X28010Y-59750D01*
X28086Y-59711D01*
X28200Y-59711D01*
X28276Y-59750D01*
X28314Y-59826D01*
X28314Y-60245D01*
X28314Y-59826D02*
X28352Y-59750D01*
X28429Y-59711D01*
X28543Y-59711D01*
X28619Y-59750D01*
X28657Y-59826D01*
X28657Y-60245D01*
X29038Y-60245D02*
X29038Y-59711D01*
X29038Y-59788D02*
X29077Y-59750D01*
X29153Y-59711D01*
X29267Y-59711D01*
X29343Y-59750D01*
X29381Y-59826D01*
X29381Y-60245D01*
X29381Y-59826D02*
X29419Y-59750D01*
X29496Y-59711D01*
X29610Y-59711D01*
X29686Y-59750D01*
X29724Y-59826D01*
X29724Y-60245D01*
X30944Y-60550D02*
X30906Y-60511D01*
X30830Y-60397D01*
X30792Y-60321D01*
X30754Y-60207D01*
X30715Y-60016D01*
X30715Y-59864D01*
X30754Y-59673D01*
X30792Y-59559D01*
X30830Y-59483D01*
X30906Y-59369D01*
X30944Y-59331D01*
X31172Y-59445D02*
X31668Y-59445D01*
X31401Y-59750D01*
X31515Y-59750D01*
X31591Y-59788D01*
X31629Y-59826D01*
X31668Y-59902D01*
X31668Y-60092D01*
X31629Y-60169D01*
X31591Y-60207D01*
X31515Y-60245D01*
X31287Y-60245D01*
X31210Y-60207D01*
X31172Y-60169D01*
X31972Y-59521D02*
X32010Y-59483D01*
X32087Y-59445D01*
X32277Y-59445D01*
X32353Y-59483D01*
X32391Y-59521D01*
X32430Y-59597D01*
X32430Y-59673D01*
X32391Y-59788D01*
X31934Y-60245D01*
X32430Y-60245D01*
X33382Y-60245D02*
X33382Y-59445D01*
X33725Y-60245D02*
X33725Y-59826D01*
X33687Y-59750D01*
X33611Y-59711D01*
X33497Y-59711D01*
X33421Y-59750D01*
X33382Y-59788D01*
X34221Y-60245D02*
X34145Y-60207D01*
X34106Y-60169D01*
X34068Y-60092D01*
X34068Y-59864D01*
X34106Y-59788D01*
X34145Y-59750D01*
X34221Y-59711D01*
X34335Y-59711D01*
X34411Y-59750D01*
X34449Y-59788D01*
X34487Y-59864D01*
X34487Y-60092D01*
X34449Y-60169D01*
X34411Y-60207D01*
X34335Y-60245D01*
X34221Y-60245D01*
X34945Y-60245D02*
X34869Y-60207D01*
X34830Y-60131D01*
X34830Y-59445D01*
X35554Y-60207D02*
X35478Y-60245D01*
X35326Y-60245D01*
X35249Y-60207D01*
X35211Y-60131D01*
X35211Y-59826D01*
X35249Y-59750D01*
X35326Y-59711D01*
X35478Y-59711D01*
X35554Y-59750D01*
X35592Y-59826D01*
X35592Y-59902D01*
X35211Y-59978D01*
X35897Y-60207D02*
X35974Y-60245D01*
X36126Y-60245D01*
X36202Y-60207D01*
X36240Y-60131D01*
X36240Y-60092D01*
X36202Y-60016D01*
X36126Y-59978D01*
X36012Y-59978D01*
X35935Y-59940D01*
X35897Y-59864D01*
X35897Y-59826D01*
X35935Y-59750D01*
X36012Y-59711D01*
X36126Y-59711D01*
X36202Y-59750D01*
X36507Y-60550D02*
X36545Y-60511D01*
X36622Y-60397D01*
X36660Y-60321D01*
X36698Y-60207D01*
X36736Y-60016D01*
X36736Y-59864D01*
X36698Y-59673D01*
X36660Y-59559D01*
X36622Y-59483D01*
X36545Y-59369D01*
X36507Y-59331D01*
G54D10*
X18817Y-60976D02*
X18811Y-61037D01*
X18793Y-61096D01*
X18764Y-61150D01*
X18725Y-61197D01*
X18678Y-61237D01*
X18624Y-61266D01*
X18565Y-61284D01*
X18504Y-61290D01*
X18443Y-61285D01*
X18384Y-61268D01*
X18330Y-61239D01*
X18282Y-61201D01*
X18243Y-61153D01*
X18213Y-61100D01*
X18194Y-61041D01*
X18188Y-60980D01*
X18193Y-60920D01*
X18210Y-60861D01*
X18238Y-60806D01*
X18276Y-60758D01*
X18323Y-60718D01*
X18376Y-60688D01*
X18435Y-60669D01*
X18496Y-60662D01*
X18556Y-60666D01*
X18615Y-60683D01*
X18670Y-60711D01*
X18719Y-60748D01*
X18759Y-60795D01*
X18789Y-60848D01*
X18809Y-60907D01*
X18816Y-60968D01*
X18817Y-60976D01*
X18187Y-60976D02*
X18817Y-60976D01*
G54D12*
X19360Y-60500D02*
X19436Y-60500D01*
X19512Y-60538D01*
X19550Y-60576D01*
X19588Y-60652D01*
X19627Y-60805D01*
X19627Y-60995D01*
X19588Y-61147D01*
X19550Y-61224D01*
X19512Y-61262D01*
X19436Y-61300D01*
X19360Y-61300D01*
X19284Y-61262D01*
X19246Y-61224D01*
X19207Y-61147D01*
X19169Y-60995D01*
X19169Y-60805D01*
X19207Y-60652D01*
X19246Y-60576D01*
X19284Y-60538D01*
X19360Y-60500D01*
X19969Y-61224D02*
X20008Y-61262D01*
X19969Y-61300D01*
X19931Y-61262D01*
X19969Y-61224D01*
X19969Y-61300D01*
X20503Y-60500D02*
X20579Y-60500D01*
X20655Y-60538D01*
X20693Y-60576D01*
X20731Y-60652D01*
X20770Y-60805D01*
X20770Y-60995D01*
X20731Y-61147D01*
X20693Y-61224D01*
X20655Y-61262D01*
X20579Y-61300D01*
X20503Y-61300D01*
X20427Y-61262D01*
X20389Y-61224D01*
X20350Y-61147D01*
X20312Y-60995D01*
X20312Y-60805D01*
X20350Y-60652D01*
X20389Y-60576D01*
X20427Y-60538D01*
X20503Y-60500D01*
X21455Y-60500D02*
X21303Y-60500D01*
X21227Y-60538D01*
X21189Y-60576D01*
X21112Y-60690D01*
X21074Y-60843D01*
X21074Y-61147D01*
X21112Y-61224D01*
X21151Y-61262D01*
X21227Y-61300D01*
X21379Y-61300D01*
X21455Y-61262D01*
X21493Y-61224D01*
X21532Y-61147D01*
X21532Y-60957D01*
X21493Y-60881D01*
X21455Y-60843D01*
X21379Y-60805D01*
X21227Y-60805D01*
X21151Y-60843D01*
X21112Y-60881D01*
X21074Y-60957D01*
X21798Y-60500D02*
X22294Y-60500D01*
X22027Y-60805D01*
X22141Y-60805D01*
X22217Y-60843D01*
X22255Y-60881D01*
X22294Y-60957D01*
X22294Y-61147D01*
X22255Y-61224D01*
X22217Y-61262D01*
X22141Y-61300D01*
X21913Y-61300D01*
X21836Y-61262D01*
X21798Y-61224D01*
X22598Y-60500D02*
X22598Y-60652D01*
X22903Y-60500D02*
X22903Y-60652D01*
X24428Y-60462D02*
X23742Y-61490D01*
X25724Y-61300D02*
X25266Y-61300D01*
X25495Y-61300D02*
X25495Y-60500D01*
X25419Y-60614D01*
X25343Y-60690D01*
X25266Y-60728D01*
X26066Y-61224D02*
X26105Y-61262D01*
X26066Y-61300D01*
X26028Y-61262D01*
X26066Y-61224D01*
X26066Y-61300D01*
X26790Y-60500D02*
X26638Y-60500D01*
X26562Y-60538D01*
X26524Y-60576D01*
X26447Y-60690D01*
X26409Y-60843D01*
X26409Y-61147D01*
X26447Y-61224D01*
X26486Y-61262D01*
X26562Y-61300D01*
X26714Y-61300D01*
X26790Y-61262D01*
X26828Y-61224D01*
X26867Y-61147D01*
X26867Y-60957D01*
X26828Y-60881D01*
X26790Y-60843D01*
X26714Y-60805D01*
X26562Y-60805D01*
X26486Y-60843D01*
X26447Y-60881D01*
X26409Y-60957D01*
X27362Y-60500D02*
X27438Y-60500D01*
X27514Y-60538D01*
X27552Y-60576D01*
X27590Y-60652D01*
X27629Y-60805D01*
X27629Y-60995D01*
X27590Y-61147D01*
X27552Y-61224D01*
X27514Y-61262D01*
X27438Y-61300D01*
X27362Y-61300D01*
X27286Y-61262D01*
X27248Y-61224D01*
X27209Y-61147D01*
X27171Y-60995D01*
X27171Y-60805D01*
X27209Y-60652D01*
X27248Y-60576D01*
X27286Y-60538D01*
X27362Y-60500D01*
X27971Y-61300D02*
X27971Y-60766D01*
X27971Y-60843D02*
X28010Y-60805D01*
X28086Y-60766D01*
X28200Y-60766D01*
X28276Y-60805D01*
X28314Y-60881D01*
X28314Y-61300D01*
X28314Y-60881D02*
X28352Y-60805D01*
X28429Y-60766D01*
X28543Y-60766D01*
X28619Y-60805D01*
X28657Y-60881D01*
X28657Y-61300D01*
X29038Y-61300D02*
X29038Y-60766D01*
X29038Y-60843D02*
X29077Y-60805D01*
X29153Y-60766D01*
X29267Y-60766D01*
X29343Y-60805D01*
X29381Y-60881D01*
X29381Y-61300D01*
X29381Y-60881D02*
X29419Y-60805D01*
X29496Y-60766D01*
X29610Y-60766D01*
X29686Y-60805D01*
X29724Y-60881D01*
X29724Y-61300D01*
X30944Y-61605D02*
X30906Y-61566D01*
X30830Y-61452D01*
X30792Y-61376D01*
X30754Y-61262D01*
X30715Y-61071D01*
X30715Y-60919D01*
X30754Y-60728D01*
X30792Y-60614D01*
X30830Y-60538D01*
X30906Y-60424D01*
X30944Y-60386D01*
X31591Y-60766D02*
X31591Y-61300D01*
X31401Y-60462D02*
X31210Y-61033D01*
X31706Y-61033D01*
X32620Y-61300D02*
X32620Y-60500D01*
X32963Y-61300D02*
X32963Y-60881D01*
X32925Y-60805D01*
X32849Y-60766D01*
X32735Y-60766D01*
X32659Y-60805D01*
X32620Y-60843D01*
X33459Y-61300D02*
X33383Y-61262D01*
X33344Y-61224D01*
X33306Y-61147D01*
X33306Y-60919D01*
X33344Y-60843D01*
X33383Y-60805D01*
X33459Y-60766D01*
X33573Y-60766D01*
X33649Y-60805D01*
X33687Y-60843D01*
X33725Y-60919D01*
X33725Y-61147D01*
X33687Y-61224D01*
X33649Y-61262D01*
X33573Y-61300D01*
X33459Y-61300D01*
X34183Y-61300D02*
X34107Y-61262D01*
X34068Y-61186D01*
X34068Y-60500D01*
X34792Y-61262D02*
X34716Y-61300D01*
X34564Y-61300D01*
X34487Y-61262D01*
X34449Y-61186D01*
X34449Y-60881D01*
X34487Y-60805D01*
X34564Y-60766D01*
X34716Y-60766D01*
X34792Y-60805D01*
X34830Y-60881D01*
X34830Y-60957D01*
X34449Y-61033D01*
X35135Y-61262D02*
X35212Y-61300D01*
X35364Y-61300D01*
X35440Y-61262D01*
X35478Y-61186D01*
X35478Y-61147D01*
X35440Y-61071D01*
X35364Y-61033D01*
X35250Y-61033D01*
X35173Y-60995D01*
X35135Y-60919D01*
X35135Y-60881D01*
X35173Y-60805D01*
X35250Y-60766D01*
X35364Y-60766D01*
X35440Y-60805D01*
X35745Y-61605D02*
X35783Y-61566D01*
X35860Y-61452D01*
X35898Y-61376D01*
X35936Y-61262D01*
X35974Y-61071D01*
X35974Y-60919D01*
X35936Y-60728D01*
X35898Y-60614D01*
X35860Y-60538D01*
X35783Y-60424D01*
X35745Y-60386D01*
G54D10*
X18816Y-62031D02*
X18807Y-62114D01*
X18783Y-62194D01*
X18744Y-62268D01*
X18691Y-62333D01*
X18626Y-62386D01*
X18553Y-62426D01*
X18473Y-62451D01*
X18389Y-62459D01*
X18307Y-62452D01*
X18227Y-62428D01*
X18153Y-62389D01*
X18087Y-62337D01*
X18034Y-62273D01*
X17993Y-62200D01*
X17968Y-62120D01*
X17959Y-62036D01*
X17966Y-61954D01*
X17989Y-61874D01*
X18027Y-61799D01*
X18079Y-61733D01*
X18143Y-61679D01*
X18216Y-61638D01*
X18295Y-61613D01*
X18379Y-61603D01*
X18461Y-61609D01*
X18542Y-61632D01*
X18616Y-61669D01*
X18682Y-61721D01*
X18737Y-61784D01*
X18778Y-61857D01*
X18805Y-61936D01*
X18815Y-62020D01*
X18816Y-62031D01*
X18387Y-61602D02*
X18387Y-62460D01*
G54D12*
X19360Y-61555D02*
X19436Y-61555D01*
X19512Y-61593D01*
X19550Y-61631D01*
X19588Y-61707D01*
X19627Y-61860D01*
X19627Y-62050D01*
X19588Y-62202D01*
X19550Y-62279D01*
X19512Y-62317D01*
X19436Y-62355D01*
X19360Y-62355D01*
X19284Y-62317D01*
X19246Y-62279D01*
X19207Y-62202D01*
X19169Y-62050D01*
X19169Y-61860D01*
X19207Y-61707D01*
X19246Y-61631D01*
X19284Y-61593D01*
X19360Y-61555D01*
X19969Y-62279D02*
X20008Y-62317D01*
X19969Y-62355D01*
X19931Y-62317D01*
X19969Y-62279D01*
X19969Y-62355D01*
X20503Y-61555D02*
X20579Y-61555D01*
X20655Y-61593D01*
X20693Y-61631D01*
X20731Y-61707D01*
X20770Y-61860D01*
X20770Y-62050D01*
X20731Y-62202D01*
X20693Y-62279D01*
X20655Y-62317D01*
X20579Y-62355D01*
X20503Y-62355D01*
X20427Y-62317D01*
X20389Y-62279D01*
X20350Y-62202D01*
X20312Y-62050D01*
X20312Y-61860D01*
X20350Y-61707D01*
X20389Y-61631D01*
X20427Y-61593D01*
X20503Y-61555D01*
X21227Y-61898D02*
X21151Y-61860D01*
X21112Y-61821D01*
X21074Y-61745D01*
X21074Y-61707D01*
X21112Y-61631D01*
X21151Y-61593D01*
X21227Y-61555D01*
X21379Y-61555D01*
X21455Y-61593D01*
X21493Y-61631D01*
X21532Y-61707D01*
X21532Y-61745D01*
X21493Y-61821D01*
X21455Y-61860D01*
X21379Y-61898D01*
X21227Y-61898D01*
X21151Y-61936D01*
X21112Y-61974D01*
X21074Y-62050D01*
X21074Y-62202D01*
X21112Y-62279D01*
X21151Y-62317D01*
X21227Y-62355D01*
X21379Y-62355D01*
X21455Y-62317D01*
X21493Y-62279D01*
X21532Y-62202D01*
X21532Y-62050D01*
X21493Y-61974D01*
X21455Y-61936D01*
X21379Y-61898D01*
X22217Y-61555D02*
X22065Y-61555D01*
X21989Y-61593D01*
X21951Y-61631D01*
X21874Y-61745D01*
X21836Y-61898D01*
X21836Y-62202D01*
X21874Y-62279D01*
X21913Y-62317D01*
X21989Y-62355D01*
X22141Y-62355D01*
X22217Y-62317D01*
X22255Y-62279D01*
X22294Y-62202D01*
X22294Y-62012D01*
X22255Y-61936D01*
X22217Y-61898D01*
X22141Y-61860D01*
X21989Y-61860D01*
X21913Y-61898D01*
X21874Y-61936D01*
X21836Y-62012D01*
X22598Y-61555D02*
X22598Y-61707D01*
X22903Y-61555D02*
X22903Y-61707D01*
X24428Y-61517D02*
X23742Y-62545D01*
X25266Y-61631D02*
X25304Y-61593D01*
X25381Y-61555D01*
X25571Y-61555D01*
X25647Y-61593D01*
X25685Y-61631D01*
X25724Y-61707D01*
X25724Y-61783D01*
X25685Y-61898D01*
X25228Y-62355D01*
X25724Y-62355D01*
X26066Y-62279D02*
X26105Y-62317D01*
X26066Y-62355D01*
X26028Y-62317D01*
X26066Y-62279D01*
X26066Y-62355D01*
X26867Y-62355D02*
X26409Y-62355D01*
X26638Y-62355D02*
X26638Y-61555D01*
X26562Y-61669D01*
X26486Y-61745D01*
X26409Y-61783D01*
X27324Y-61898D02*
X27248Y-61860D01*
X27209Y-61821D01*
X27171Y-61745D01*
X27171Y-61707D01*
X27209Y-61631D01*
X27248Y-61593D01*
X27324Y-61555D01*
X27476Y-61555D01*
X27552Y-61593D01*
X27590Y-61631D01*
X27629Y-61707D01*
X27629Y-61745D01*
X27590Y-61821D01*
X27552Y-61860D01*
X27476Y-61898D01*
X27324Y-61898D01*
X27248Y-61936D01*
X27209Y-61974D01*
X27171Y-62050D01*
X27171Y-62202D01*
X27209Y-62279D01*
X27248Y-62317D01*
X27324Y-62355D01*
X27476Y-62355D01*
X27552Y-62317D01*
X27590Y-62279D01*
X27629Y-62202D01*
X27629Y-62050D01*
X27590Y-61974D01*
X27552Y-61936D01*
X27476Y-61898D01*
X27971Y-62355D02*
X27971Y-61821D01*
X27971Y-61898D02*
X28010Y-61860D01*
X28086Y-61821D01*
X28200Y-61821D01*
X28276Y-61860D01*
X28314Y-61936D01*
X28314Y-62355D01*
X28314Y-61936D02*
X28352Y-61860D01*
X28429Y-61821D01*
X28543Y-61821D01*
X28619Y-61860D01*
X28657Y-61936D01*
X28657Y-62355D01*
X29038Y-62355D02*
X29038Y-61821D01*
X29038Y-61898D02*
X29077Y-61860D01*
X29153Y-61821D01*
X29267Y-61821D01*
X29343Y-61860D01*
X29381Y-61936D01*
X29381Y-62355D01*
X29381Y-61936D02*
X29419Y-61860D01*
X29496Y-61821D01*
X29610Y-61821D01*
X29686Y-61860D01*
X29724Y-61936D01*
X29724Y-62355D01*
X30944Y-62660D02*
X30906Y-62621D01*
X30830Y-62507D01*
X30792Y-62431D01*
X30754Y-62317D01*
X30715Y-62126D01*
X30715Y-61974D01*
X30754Y-61783D01*
X30792Y-61669D01*
X30830Y-61593D01*
X30906Y-61479D01*
X30944Y-61441D01*
X31172Y-61555D02*
X31668Y-61555D01*
X31401Y-61860D01*
X31515Y-61860D01*
X31591Y-61898D01*
X31629Y-61936D01*
X31668Y-62012D01*
X31668Y-62202D01*
X31629Y-62279D01*
X31591Y-62317D01*
X31515Y-62355D01*
X31287Y-62355D01*
X31210Y-62317D01*
X31172Y-62279D01*
X32620Y-62355D02*
X32620Y-61555D01*
X32963Y-62355D02*
X32963Y-61936D01*
X32925Y-61860D01*
X32849Y-61821D01*
X32735Y-61821D01*
X32659Y-61860D01*
X32620Y-61898D01*
X33459Y-62355D02*
X33383Y-62317D01*
X33344Y-62279D01*
X33306Y-62202D01*
X33306Y-61974D01*
X33344Y-61898D01*
X33383Y-61860D01*
X33459Y-61821D01*
X33573Y-61821D01*
X33649Y-61860D01*
X33687Y-61898D01*
X33725Y-61974D01*
X33725Y-62202D01*
X33687Y-62279D01*
X33649Y-62317D01*
X33573Y-62355D01*
X33459Y-62355D01*
X34183Y-62355D02*
X34107Y-62317D01*
X34068Y-62241D01*
X34068Y-61555D01*
X34792Y-62317D02*
X34716Y-62355D01*
X34564Y-62355D01*
X34487Y-62317D01*
X34449Y-62241D01*
X34449Y-61936D01*
X34487Y-61860D01*
X34564Y-61821D01*
X34716Y-61821D01*
X34792Y-61860D01*
X34830Y-61936D01*
X34830Y-62012D01*
X34449Y-62088D01*
X35135Y-62317D02*
X35212Y-62355D01*
X35364Y-62355D01*
X35440Y-62317D01*
X35478Y-62241D01*
X35478Y-62202D01*
X35440Y-62126D01*
X35364Y-62088D01*
X35250Y-62088D01*
X35173Y-62050D01*
X35135Y-61974D01*
X35135Y-61936D01*
X35173Y-61860D01*
X35250Y-61821D01*
X35364Y-61821D01*
X35440Y-61860D01*
X35745Y-62660D02*
X35783Y-62621D01*
X35860Y-62507D01*
X35898Y-62431D01*
X35936Y-62317D01*
X35974Y-62126D01*
X35974Y-61974D01*
X35936Y-61783D01*
X35898Y-61669D01*
X35860Y-61593D01*
X35783Y-61479D01*
X35745Y-61441D01*
G54D10*
X18641Y-63594D02*
X18641Y-62746D01*
X17793Y-62746D01*
X17793Y-63594D01*
X18641Y-63594D01*
G54D12*
X19360Y-62694D02*
X19436Y-62694D01*
X19512Y-62732D01*
X19550Y-62770D01*
X19588Y-62846D01*
X19627Y-62999D01*
X19627Y-63189D01*
X19588Y-63341D01*
X19550Y-63418D01*
X19512Y-63456D01*
X19436Y-63494D01*
X19360Y-63494D01*
X19284Y-63456D01*
X19246Y-63418D01*
X19207Y-63341D01*
X19169Y-63189D01*
X19169Y-62999D01*
X19207Y-62846D01*
X19246Y-62770D01*
X19284Y-62732D01*
X19360Y-62694D01*
X19969Y-63418D02*
X20008Y-63456D01*
X19969Y-63494D01*
X19931Y-63456D01*
X19969Y-63418D01*
X19969Y-63494D01*
X20770Y-63494D02*
X20312Y-63494D01*
X20541Y-63494D02*
X20541Y-62694D01*
X20465Y-62808D01*
X20389Y-62884D01*
X20312Y-62922D01*
X21074Y-62770D02*
X21112Y-62732D01*
X21189Y-62694D01*
X21379Y-62694D01*
X21455Y-62732D01*
X21493Y-62770D01*
X21532Y-62846D01*
X21532Y-62922D01*
X21493Y-63037D01*
X21036Y-63494D01*
X21532Y-63494D01*
X22027Y-62694D02*
X22103Y-62694D01*
X22179Y-62732D01*
X22217Y-62770D01*
X22255Y-62846D01*
X22294Y-62999D01*
X22294Y-63189D01*
X22255Y-63341D01*
X22217Y-63418D01*
X22179Y-63456D01*
X22103Y-63494D01*
X22027Y-63494D01*
X21951Y-63456D01*
X21913Y-63418D01*
X21874Y-63341D01*
X21836Y-63189D01*
X21836Y-62999D01*
X21874Y-62846D01*
X21913Y-62770D01*
X21951Y-62732D01*
X22027Y-62694D01*
X22598Y-62694D02*
X22598Y-62846D01*
X22903Y-62694D02*
X22903Y-62846D01*
X24428Y-62656D02*
X23742Y-63684D01*
X25228Y-62694D02*
X25724Y-62694D01*
X25457Y-62999D01*
X25571Y-62999D01*
X25647Y-63037D01*
X25685Y-63075D01*
X25724Y-63151D01*
X25724Y-63341D01*
X25685Y-63418D01*
X25647Y-63456D01*
X25571Y-63494D01*
X25343Y-63494D01*
X25266Y-63456D01*
X25228Y-63418D01*
X26066Y-63418D02*
X26105Y-63456D01*
X26066Y-63494D01*
X26028Y-63456D01*
X26066Y-63418D01*
X26066Y-63494D01*
X26600Y-62694D02*
X26676Y-62694D01*
X26752Y-62732D01*
X26790Y-62770D01*
X26828Y-62846D01*
X26867Y-62999D01*
X26867Y-63189D01*
X26828Y-63341D01*
X26790Y-63418D01*
X26752Y-63456D01*
X26676Y-63494D01*
X26600Y-63494D01*
X26524Y-63456D01*
X26486Y-63418D01*
X26447Y-63341D01*
X26409Y-63189D01*
X26409Y-62999D01*
X26447Y-62846D01*
X26486Y-62770D01*
X26524Y-62732D01*
X26600Y-62694D01*
X27590Y-62694D02*
X27209Y-62694D01*
X27171Y-63075D01*
X27209Y-63037D01*
X27286Y-62999D01*
X27476Y-62999D01*
X27552Y-63037D01*
X27590Y-63075D01*
X27629Y-63151D01*
X27629Y-63341D01*
X27590Y-63418D01*
X27552Y-63456D01*
X27476Y-63494D01*
X27286Y-63494D01*
X27209Y-63456D01*
X27171Y-63418D01*
X27971Y-63494D02*
X27971Y-62960D01*
X27971Y-63037D02*
X28010Y-62999D01*
X28086Y-62960D01*
X28200Y-62960D01*
X28276Y-62999D01*
X28314Y-63075D01*
X28314Y-63494D01*
X28314Y-63075D02*
X28352Y-62999D01*
X28429Y-62960D01*
X28543Y-62960D01*
X28619Y-62999D01*
X28657Y-63075D01*
X28657Y-63494D01*
X29038Y-63494D02*
X29038Y-62960D01*
X29038Y-63037D02*
X29077Y-62999D01*
X29153Y-62960D01*
X29267Y-62960D01*
X29343Y-62999D01*
X29381Y-63075D01*
X29381Y-63494D01*
X29381Y-63075D02*
X29419Y-62999D01*
X29496Y-62960D01*
X29610Y-62960D01*
X29686Y-62999D01*
X29724Y-63075D01*
X29724Y-63494D01*
X30944Y-63799D02*
X30906Y-63760D01*
X30830Y-63646D01*
X30792Y-63570D01*
X30754Y-63456D01*
X30715Y-63265D01*
X30715Y-63113D01*
X30754Y-62922D01*
X30792Y-62808D01*
X30830Y-62732D01*
X30906Y-62618D01*
X30944Y-62580D01*
X31210Y-62770D02*
X31248Y-62732D01*
X31325Y-62694D01*
X31515Y-62694D01*
X31591Y-62732D01*
X31629Y-62770D01*
X31668Y-62846D01*
X31668Y-62922D01*
X31629Y-63037D01*
X31172Y-63494D01*
X31668Y-63494D01*
X32620Y-63494D02*
X32620Y-62694D01*
X32963Y-63494D02*
X32963Y-63075D01*
X32925Y-62999D01*
X32849Y-62960D01*
X32735Y-62960D01*
X32659Y-62999D01*
X32620Y-63037D01*
X33459Y-63494D02*
X33383Y-63456D01*
X33344Y-63418D01*
X33306Y-63341D01*
X33306Y-63113D01*
X33344Y-63037D01*
X33383Y-62999D01*
X33459Y-62960D01*
X33573Y-62960D01*
X33649Y-62999D01*
X33687Y-63037D01*
X33725Y-63113D01*
X33725Y-63341D01*
X33687Y-63418D01*
X33649Y-63456D01*
X33573Y-63494D01*
X33459Y-63494D01*
X34183Y-63494D02*
X34107Y-63456D01*
X34068Y-63380D01*
X34068Y-62694D01*
X34792Y-63456D02*
X34716Y-63494D01*
X34564Y-63494D01*
X34487Y-63456D01*
X34449Y-63380D01*
X34449Y-63075D01*
X34487Y-62999D01*
X34564Y-62960D01*
X34716Y-62960D01*
X34792Y-62999D01*
X34830Y-63075D01*
X34830Y-63151D01*
X34449Y-63227D01*
X35135Y-63456D02*
X35212Y-63494D01*
X35364Y-63494D01*
X35440Y-63456D01*
X35478Y-63380D01*
X35478Y-63341D01*
X35440Y-63265D01*
X35364Y-63227D01*
X35250Y-63227D01*
X35173Y-63189D01*
X35135Y-63113D01*
X35135Y-63075D01*
X35173Y-62999D01*
X35250Y-62960D01*
X35364Y-62960D01*
X35440Y-62999D01*
X35745Y-63799D02*
X35783Y-63760D01*
X35860Y-63646D01*
X35898Y-63570D01*
X35936Y-63456D01*
X35974Y-63265D01*
X35974Y-63113D01*
X35936Y-62922D01*
X35898Y-62808D01*
X35860Y-62732D01*
X35783Y-62618D01*
X35745Y-62580D01*
G54D10*
X18187Y-65280D02*
X18817Y-64650D01*
X18187Y-64020D01*
X17557Y-64650D01*
X18187Y-65280D01*
G54D12*
X19360Y-64174D02*
X19436Y-64174D01*
X19512Y-64212D01*
X19550Y-64250D01*
X19588Y-64326D01*
X19627Y-64479D01*
X19627Y-64669D01*
X19588Y-64821D01*
X19550Y-64898D01*
X19512Y-64936D01*
X19436Y-64974D01*
X19360Y-64974D01*
X19284Y-64936D01*
X19246Y-64898D01*
X19207Y-64821D01*
X19169Y-64669D01*
X19169Y-64479D01*
X19207Y-64326D01*
X19246Y-64250D01*
X19284Y-64212D01*
X19360Y-64174D01*
X19969Y-64898D02*
X20008Y-64936D01*
X19969Y-64974D01*
X19931Y-64936D01*
X19969Y-64898D01*
X19969Y-64974D01*
X20770Y-64974D02*
X20312Y-64974D01*
X20541Y-64974D02*
X20541Y-64174D01*
X20465Y-64288D01*
X20389Y-64364D01*
X20312Y-64402D01*
X21074Y-64250D02*
X21112Y-64212D01*
X21189Y-64174D01*
X21379Y-64174D01*
X21455Y-64212D01*
X21493Y-64250D01*
X21532Y-64326D01*
X21532Y-64402D01*
X21493Y-64517D01*
X21036Y-64974D01*
X21532Y-64974D01*
X22217Y-64174D02*
X22065Y-64174D01*
X21989Y-64212D01*
X21951Y-64250D01*
X21874Y-64364D01*
X21836Y-64517D01*
X21836Y-64821D01*
X21874Y-64898D01*
X21913Y-64936D01*
X21989Y-64974D01*
X22141Y-64974D01*
X22217Y-64936D01*
X22255Y-64898D01*
X22294Y-64821D01*
X22294Y-64631D01*
X22255Y-64555D01*
X22217Y-64517D01*
X22141Y-64479D01*
X21989Y-64479D01*
X21913Y-64517D01*
X21874Y-64555D01*
X21836Y-64631D01*
X22598Y-64174D02*
X22598Y-64326D01*
X22903Y-64174D02*
X22903Y-64326D01*
X24428Y-64136D02*
X23742Y-65164D01*
X25228Y-64174D02*
X25724Y-64174D01*
X25457Y-64479D01*
X25571Y-64479D01*
X25647Y-64517D01*
X25685Y-64555D01*
X25724Y-64631D01*
X25724Y-64821D01*
X25685Y-64898D01*
X25647Y-64936D01*
X25571Y-64974D01*
X25343Y-64974D01*
X25266Y-64936D01*
X25228Y-64898D01*
X26066Y-64898D02*
X26105Y-64936D01*
X26066Y-64974D01*
X26028Y-64936D01*
X26066Y-64898D01*
X26066Y-64974D01*
X26409Y-64250D02*
X26447Y-64212D01*
X26524Y-64174D01*
X26714Y-64174D01*
X26790Y-64212D01*
X26828Y-64250D01*
X26867Y-64326D01*
X26867Y-64402D01*
X26828Y-64517D01*
X26371Y-64974D01*
X26867Y-64974D01*
X27362Y-64174D02*
X27438Y-64174D01*
X27514Y-64212D01*
X27552Y-64250D01*
X27590Y-64326D01*
X27629Y-64479D01*
X27629Y-64669D01*
X27590Y-64821D01*
X27552Y-64898D01*
X27514Y-64936D01*
X27438Y-64974D01*
X27362Y-64974D01*
X27286Y-64936D01*
X27248Y-64898D01*
X27209Y-64821D01*
X27171Y-64669D01*
X27171Y-64479D01*
X27209Y-64326D01*
X27248Y-64250D01*
X27286Y-64212D01*
X27362Y-64174D01*
X27971Y-64974D02*
X27971Y-64440D01*
X27971Y-64517D02*
X28010Y-64479D01*
X28086Y-64440D01*
X28200Y-64440D01*
X28276Y-64479D01*
X28314Y-64555D01*
X28314Y-64974D01*
X28314Y-64555D02*
X28352Y-64479D01*
X28429Y-64440D01*
X28543Y-64440D01*
X28619Y-64479D01*
X28657Y-64555D01*
X28657Y-64974D01*
X29038Y-64974D02*
X29038Y-64440D01*
X29038Y-64517D02*
X29077Y-64479D01*
X29153Y-64440D01*
X29267Y-64440D01*
X29343Y-64479D01*
X29381Y-64555D01*
X29381Y-64974D01*
X29381Y-64555D02*
X29419Y-64479D01*
X29496Y-64440D01*
X29610Y-64440D01*
X29686Y-64479D01*
X29724Y-64555D01*
X29724Y-64974D01*
X30944Y-65279D02*
X30906Y-65240D01*
X30830Y-65126D01*
X30792Y-65050D01*
X30754Y-64936D01*
X30715Y-64745D01*
X30715Y-64593D01*
X30754Y-64402D01*
X30792Y-64288D01*
X30830Y-64212D01*
X30906Y-64098D01*
X30944Y-64060D01*
X31668Y-64974D02*
X31210Y-64974D01*
X31439Y-64974D02*
X31439Y-64174D01*
X31363Y-64288D01*
X31287Y-64364D01*
X31210Y-64402D01*
X32620Y-64974D02*
X32620Y-64174D01*
X32963Y-64974D02*
X32963Y-64555D01*
X32925Y-64479D01*
X32849Y-64440D01*
X32735Y-64440D01*
X32659Y-64479D01*
X32620Y-64517D01*
X33459Y-64974D02*
X33383Y-64936D01*
X33344Y-64898D01*
X33306Y-64821D01*
X33306Y-64593D01*
X33344Y-64517D01*
X33383Y-64479D01*
X33459Y-64440D01*
X33573Y-64440D01*
X33649Y-64479D01*
X33687Y-64517D01*
X33725Y-64593D01*
X33725Y-64821D01*
X33687Y-64898D01*
X33649Y-64936D01*
X33573Y-64974D01*
X33459Y-64974D01*
X34183Y-64974D02*
X34107Y-64936D01*
X34068Y-64860D01*
X34068Y-64174D01*
X34792Y-64936D02*
X34716Y-64974D01*
X34564Y-64974D01*
X34487Y-64936D01*
X34449Y-64860D01*
X34449Y-64555D01*
X34487Y-64479D01*
X34564Y-64440D01*
X34716Y-64440D01*
X34792Y-64479D01*
X34830Y-64555D01*
X34830Y-64631D01*
X34449Y-64707D01*
X35097Y-65279D02*
X35135Y-65240D01*
X35212Y-65126D01*
X35250Y-65050D01*
X35288Y-64936D01*
X35326Y-64745D01*
X35326Y-64593D01*
X35288Y-64402D01*
X35250Y-64288D01*
X35212Y-64212D01*
X35135Y-64098D01*
X35097Y-64060D01*
G54D10*
X18630Y-66643D02*
X18630Y-65737D01*
X17724Y-65737D01*
X17724Y-66643D01*
X18630Y-66643D01*
X17537Y-65550D02*
X18817Y-66830D01*
X18817Y-65550D02*
X17537Y-66830D01*
G54D12*
X19360Y-65714D02*
X19436Y-65714D01*
X19512Y-65752D01*
X19550Y-65790D01*
X19588Y-65866D01*
X19627Y-66019D01*
X19627Y-66209D01*
X19588Y-66361D01*
X19550Y-66438D01*
X19512Y-66476D01*
X19436Y-66514D01*
X19360Y-66514D01*
X19284Y-66476D01*
X19246Y-66438D01*
X19207Y-66361D01*
X19169Y-66209D01*
X19169Y-66019D01*
X19207Y-65866D01*
X19246Y-65790D01*
X19284Y-65752D01*
X19360Y-65714D01*
X19969Y-66438D02*
X20008Y-66476D01*
X19969Y-66514D01*
X19931Y-66476D01*
X19969Y-66438D01*
X19969Y-66514D01*
X20770Y-66514D02*
X20312Y-66514D01*
X20541Y-66514D02*
X20541Y-65714D01*
X20465Y-65828D01*
X20389Y-65904D01*
X20312Y-65942D01*
X21074Y-65790D02*
X21112Y-65752D01*
X21189Y-65714D01*
X21379Y-65714D01*
X21455Y-65752D01*
X21493Y-65790D01*
X21532Y-65866D01*
X21532Y-65942D01*
X21493Y-66057D01*
X21036Y-66514D01*
X21532Y-66514D01*
X21989Y-66057D02*
X21913Y-66019D01*
X21874Y-65980D01*
X21836Y-65904D01*
X21836Y-65866D01*
X21874Y-65790D01*
X21913Y-65752D01*
X21989Y-65714D01*
X22141Y-65714D01*
X22217Y-65752D01*
X22255Y-65790D01*
X22294Y-65866D01*
X22294Y-65904D01*
X22255Y-65980D01*
X22217Y-66019D01*
X22141Y-66057D01*
X21989Y-66057D01*
X21913Y-66095D01*
X21874Y-66133D01*
X21836Y-66209D01*
X21836Y-66361D01*
X21874Y-66438D01*
X21913Y-66476D01*
X21989Y-66514D01*
X22141Y-66514D01*
X22217Y-66476D01*
X22255Y-66438D01*
X22294Y-66361D01*
X22294Y-66209D01*
X22255Y-66133D01*
X22217Y-66095D01*
X22141Y-66057D01*
X22598Y-65714D02*
X22598Y-65866D01*
X22903Y-65714D02*
X22903Y-65866D01*
X24428Y-65676D02*
X23742Y-66704D01*
X25228Y-65714D02*
X25724Y-65714D01*
X25457Y-66019D01*
X25571Y-66019D01*
X25647Y-66057D01*
X25685Y-66095D01*
X25724Y-66171D01*
X25724Y-66361D01*
X25685Y-66438D01*
X25647Y-66476D01*
X25571Y-66514D01*
X25343Y-66514D01*
X25266Y-66476D01*
X25228Y-66438D01*
X26066Y-66438D02*
X26105Y-66476D01*
X26066Y-66514D01*
X26028Y-66476D01*
X26066Y-66438D01*
X26066Y-66514D01*
X26409Y-65790D02*
X26447Y-65752D01*
X26524Y-65714D01*
X26714Y-65714D01*
X26790Y-65752D01*
X26828Y-65790D01*
X26867Y-65866D01*
X26867Y-65942D01*
X26828Y-66057D01*
X26371Y-66514D01*
X26867Y-66514D01*
X27590Y-65714D02*
X27209Y-65714D01*
X27171Y-66095D01*
X27209Y-66057D01*
X27286Y-66019D01*
X27476Y-66019D01*
X27552Y-66057D01*
X27590Y-66095D01*
X27629Y-66171D01*
X27629Y-66361D01*
X27590Y-66438D01*
X27552Y-66476D01*
X27476Y-66514D01*
X27286Y-66514D01*
X27209Y-66476D01*
X27171Y-66438D01*
X27971Y-66514D02*
X27971Y-65980D01*
X27971Y-66057D02*
X28010Y-66019D01*
X28086Y-65980D01*
X28200Y-65980D01*
X28276Y-66019D01*
X28314Y-66095D01*
X28314Y-66514D01*
X28314Y-66095D02*
X28352Y-66019D01*
X28429Y-65980D01*
X28543Y-65980D01*
X28619Y-66019D01*
X28657Y-66095D01*
X28657Y-66514D01*
X29038Y-66514D02*
X29038Y-65980D01*
X29038Y-66057D02*
X29077Y-66019D01*
X29153Y-65980D01*
X29267Y-65980D01*
X29343Y-66019D01*
X29381Y-66095D01*
X29381Y-66514D01*
X29381Y-66095D02*
X29419Y-66019D01*
X29496Y-65980D01*
X29610Y-65980D01*
X29686Y-66019D01*
X29724Y-66095D01*
X29724Y-66514D01*
X30944Y-66819D02*
X30906Y-66780D01*
X30830Y-66666D01*
X30792Y-66590D01*
X30754Y-66476D01*
X30715Y-66285D01*
X30715Y-66133D01*
X30754Y-65942D01*
X30792Y-65828D01*
X30830Y-65752D01*
X30906Y-65638D01*
X30944Y-65600D01*
X31668Y-66514D02*
X31210Y-66514D01*
X31439Y-66514D02*
X31439Y-65714D01*
X31363Y-65828D01*
X31287Y-65904D01*
X31210Y-65942D01*
X32620Y-66514D02*
X32620Y-65714D01*
X32963Y-66514D02*
X32963Y-66095D01*
X32925Y-66019D01*
X32849Y-65980D01*
X32735Y-65980D01*
X32659Y-66019D01*
X32620Y-66057D01*
X33459Y-66514D02*
X33383Y-66476D01*
X33344Y-66438D01*
X33306Y-66361D01*
X33306Y-66133D01*
X33344Y-66057D01*
X33383Y-66019D01*
X33459Y-65980D01*
X33573Y-65980D01*
X33649Y-66019D01*
X33687Y-66057D01*
X33725Y-66133D01*
X33725Y-66361D01*
X33687Y-66438D01*
X33649Y-66476D01*
X33573Y-66514D01*
X33459Y-66514D01*
X34183Y-66514D02*
X34107Y-66476D01*
X34068Y-66400D01*
X34068Y-65714D01*
X34792Y-66476D02*
X34716Y-66514D01*
X34564Y-66514D01*
X34487Y-66476D01*
X34449Y-66400D01*
X34449Y-66095D01*
X34487Y-66019D01*
X34564Y-65980D01*
X34716Y-65980D01*
X34792Y-66019D01*
X34830Y-66095D01*
X34830Y-66171D01*
X34449Y-66247D01*
X35097Y-66819D02*
X35135Y-66780D01*
X35212Y-66666D01*
X35250Y-66590D01*
X35288Y-66476D01*
X35326Y-66285D01*
X35326Y-66133D01*
X35288Y-65942D01*
X35250Y-65828D01*
X35212Y-65752D01*
X35135Y-65638D01*
X35097Y-65600D01*
M02*
